<svg xmlns="http://www.w3.org/2000/svg" xmlns:xlink="http://www.w3.org/1999/xlink" width="200" zoomAndPan="magnify" viewBox="0 0 150 149.999998" height="200" preserveAspectRatio="xMidYMid meet" version="1.0"><defs><clipPath id="94d1b009b1"><path d="M 0 19.125 L 150 19.125 L 150 130.875 L 0 130.875 Z M 0 19.125 " clip-rule="nonzero"/></clipPath></defs><g clip-path="url(#94d1b009b1)"><path fill="#ff5757" d="M 148.007812 106.972656 C 147.082031 105.257812 145.878906 103.765625 144.398438 102.5 C 142.921875 101.230469 141.261719 100.269531 139.425781 99.617188 C 138.019531 100.035156 136.597656 100.371094 135.152344 100.625 C 131.949219 101.242188 128.929688 101.824219 126.058594 104.660156 C 123.183594 107.5 122.191406 110.125 121.140625 112.90625 C 120.492188 114.617188 119.824219 116.382812 118.699219 118.148438 C 118.859375 119.027344 119.117188 119.875 119.46875 120.695312 C 120.035156 122.054688 120.773438 123.3125 121.6875 124.460938 C 122.605469 125.613281 123.660156 126.617188 124.855469 127.476562 C 126.050781 128.332031 127.34375 129.007812 128.726562 129.503906 C 130.113281 130 131.539062 130.296875 133.007812 130.394531 C 134.472656 130.492188 135.929688 130.386719 137.367188 130.078125 C 138.804688 129.769531 140.171875 129.273438 141.472656 128.582031 C 142.769531 127.890625 143.949219 127.035156 145.011719 126.015625 C 146.070312 124.992188 146.96875 123.847656 147.710938 122.574219 C 147.890625 122.265625 148.066406 121.953125 148.226562 121.632812 C 149.140625 119.820312 149.683594 117.902344 149.855469 115.878906 C 149.890625 115.433594 149.921875 114.984375 149.921875 114.527344 C 149.925781 111.847656 149.289062 109.328125 148.007812 106.972656 Z M 142.492188 116.753906 C 142.394531 117.101562 142.277344 117.441406 142.136719 117.773438 C 141.996094 118.105469 141.835938 118.429688 141.652344 118.742188 C 141.472656 119.054688 141.273438 119.355469 141.054688 119.644531 C 140.835938 119.929688 140.597656 120.203125 140.34375 120.460938 C 140.09375 120.71875 139.824219 120.960938 139.539062 121.183594 C 139.257812 121.410156 138.960938 121.613281 138.652344 121.800781 C 138.34375 121.988281 138.023438 122.15625 137.691406 122.304688 C 137.363281 122.449219 137.023438 122.574219 136.675781 122.679688 C 136.332031 122.785156 135.980469 122.867188 135.625 122.925781 C 135.265625 122.988281 134.910156 123.023438 134.546875 123.039062 C 134.1875 123.054688 133.824219 123.046875 133.464844 123.019531 C 133.105469 122.988281 132.75 122.933594 132.394531 122.859375 C 132.042969 122.785156 131.695312 122.6875 131.351562 122.570312 C 131.011719 122.453125 130.679688 122.3125 130.355469 122.152344 C 130.03125 121.992188 129.71875 121.8125 129.417969 121.613281 C 129.113281 121.414062 128.828125 121.195312 128.554688 120.957031 C 128.28125 120.722656 128.023438 120.472656 127.777344 120.203125 C 127.535156 119.933594 127.3125 119.652344 127.105469 119.355469 C 126.898438 119.058594 126.710938 118.75 126.542969 118.429688 C 126.375 118.113281 126.226562 117.78125 126.101562 117.445312 C 125.972656 117.105469 125.867188 116.761719 125.785156 116.410156 C 125.703125 116.058594 125.640625 115.703125 125.601562 115.34375 C 125.5625 114.984375 125.546875 114.621094 125.554688 114.261719 C 125.558594 113.898438 125.589844 113.539062 125.640625 113.183594 C 125.691406 112.824219 125.765625 112.472656 125.863281 112.121094 C 125.957031 111.773438 126.074219 111.433594 126.214844 111.101562 C 126.355469 110.765625 126.511719 110.441406 126.691406 110.128906 C 126.871094 109.816406 127.070312 109.515625 127.289062 109.226562 C 127.503906 108.9375 127.738281 108.664062 127.992188 108.402344 C 128.242188 108.144531 128.511719 107.902344 128.792969 107.675781 C 129.074219 107.449219 129.371094 107.242188 129.679688 107.054688 C 129.988281 106.863281 130.304688 106.695312 130.636719 106.546875 C 130.964844 106.398438 131.300781 106.273438 131.648438 106.164062 C 131.992188 106.058594 132.34375 105.976562 132.699219 105.914062 C 133.054688 105.851562 133.414062 105.8125 133.777344 105.792969 C 134.136719 105.777344 134.496094 105.78125 134.859375 105.8125 C 135.21875 105.839844 135.574219 105.890625 135.929688 105.964844 C 136.285156 106.035156 136.632812 106.132812 136.972656 106.246094 C 137.316406 106.363281 137.648438 106.503906 137.972656 106.660156 C 138.296875 106.820312 138.613281 107 138.914062 107.195312 C 139.214844 107.394531 139.503906 107.609375 139.78125 107.84375 C 140.054688 108.078125 140.316406 108.328125 140.558594 108.597656 C 140.800781 108.863281 141.027344 109.144531 141.238281 109.441406 C 141.445312 109.734375 141.632812 110.042969 141.804688 110.363281 C 141.972656 110.679688 142.121094 111.007812 142.25 111.347656 C 142.378906 111.683594 142.488281 112.03125 142.570312 112.382812 C 142.65625 112.730469 142.71875 113.085938 142.761719 113.445312 C 142.800781 113.804688 142.820312 114.164062 142.816406 114.527344 C 142.804688 115.28125 142.695312 116.023438 142.492188 116.753906 Z M 127.074219 102.246094 C 127.957031 101.632812 128.902344 101.128906 129.910156 100.738281 C 130.226562 100.613281 130.546875 100.503906 130.867188 100.398438 C 132.144531 100.011719 133.441406 99.707031 134.757812 99.476562 C 135.085938 99.414062 135.417969 99.351562 135.746094 99.285156 C 136.210938 99.195312 136.675781 99.09375 137.144531 98.988281 C 137.339844 98.941406 137.539062 98.898438 137.738281 98.847656 C 138.777344 98.597656 139.785156 98.265625 140.769531 97.847656 C 141.410156 97.578125 142.03125 97.261719 142.628906 96.902344 C 142.882812 96.746094 143.113281 96.59375 143.316406 96.449219 C 143.859375 96.09375 144.335938 95.671875 144.757812 95.175781 C 143.4375 94.199219 142.015625 93.410156 140.488281 92.808594 C 140.363281 92.757812 140.238281 92.703125 140.109375 92.65625 C 139.425781 92.394531 138.730469 92.167969 138.027344 91.980469 C 137.890625 91.945312 137.753906 91.914062 137.617188 91.882812 C 136.875 91.695312 136.121094 91.550781 135.363281 91.453125 C 134.582031 91.359375 133.796875 91.308594 133.011719 91.300781 C 132.859375 91.300781 132.710938 91.292969 132.558594 91.292969 C 131.941406 91.300781 131.320312 91.324219 130.695312 91.386719 C 128.167969 91.640625 125.769531 92.339844 123.5 93.480469 L 124.800781 91.589844 L 125.441406 90.664062 C 126.058594 89.765625 126.433594 88.777344 126.5625 87.695312 C 126.695312 86.617188 126.5625 85.566406 126.175781 84.546875 L 117.675781 62.265625 L 122.914062 63.097656 C 123.183594 63.140625 123.449219 63.125 123.710938 63.050781 C 123.972656 62.976562 124.207031 62.851562 124.414062 62.675781 C 124.621094 62.496094 124.785156 62.285156 124.898438 62.039062 C 125.011719 61.792969 125.066406 61.53125 125.070312 61.257812 L 125.070312 51.476562 C 125.066406 51.203125 125.011719 50.945312 124.898438 50.699219 C 124.78125 50.449219 124.621094 50.238281 124.414062 50.0625 C 124.207031 49.882812 123.972656 49.757812 123.710938 49.683594 C 123.449219 49.613281 123.183594 49.597656 122.914062 49.636719 L 110.90625 51.550781 C 110.648438 51.589844 110.40625 51.675781 110.179688 51.800781 C 109.953125 51.929688 109.757812 52.089844 109.585938 52.289062 C 109.417969 52.484375 109.289062 52.707031 109.199219 52.949219 C 109.109375 53.195312 109.066406 53.445312 109.066406 53.707031 L 109.066406 55.507812 C 108.882812 55.472656 108.695312 55.445312 108.507812 55.4375 L 98.933594 55.316406 C 98.257812 55.289062 97.703125 55.015625 97.277344 54.488281 L 88.609375 43.8125 C 83.816406 37.9375 75.632812 39.765625 74.09375 47.191406 L 69.585938 64.125 C 69.441406 64.816406 69.363281 65.515625 69.347656 66.21875 C 69.335938 66.925781 69.386719 67.625 69.5 68.320312 C 69.617188 69.015625 69.796875 69.695312 70.039062 70.355469 C 70.277344 71.019531 70.578125 71.652344 70.941406 72.257812 C 71.300781 72.867188 71.710938 73.433594 72.179688 73.964844 C 72.644531 74.492188 73.152344 74.976562 73.707031 75.410156 C 74.265625 75.84375 74.855469 76.222656 75.480469 76.546875 C 76.105469 76.875 76.757812 77.136719 77.429688 77.339844 L 49.605469 77.339844 C 49.46875 77.34375 49.335938 77.367188 49.210938 77.421875 C 49.085938 77.472656 48.972656 77.546875 48.875 77.644531 C 48.78125 77.742188 48.707031 77.851562 48.652344 77.976562 C 48.601562 78.105469 48.574219 78.234375 48.574219 78.371094 L 48.574219 82.242188 C 48.574219 82.378906 48.601562 82.511719 48.652344 82.636719 C 48.707031 82.765625 48.78125 82.875 48.878906 82.972656 C 48.972656 83.066406 49.085938 83.140625 49.210938 83.195312 C 49.335938 83.246094 49.46875 83.273438 49.605469 83.273438 L 88.175781 83.273438 C 88.3125 83.273438 88.445312 83.246094 88.570312 83.195312 C 88.695312 83.144531 88.808594 83.066406 88.90625 82.972656 C 89 82.875 89.074219 82.765625 89.128906 82.636719 C 89.179688 82.511719 89.207031 82.378906 89.207031 82.242188 L 89.207031 79.179688 L 94.464844 79.933594 L 90.304688 98.449219 C 90.253906 98.722656 90.234375 99 90.238281 99.28125 C 90.246094 99.558594 90.277344 99.835938 90.335938 100.109375 C 90.394531 100.382812 90.480469 100.644531 90.589844 100.902344 C 90.703125 101.15625 90.835938 101.402344 90.996094 101.632812 C 91.152344 101.859375 91.332031 102.074219 91.53125 102.269531 C 91.730469 102.464844 91.949219 102.636719 92.179688 102.789062 C 92.414062 102.945312 92.660156 103.074219 92.917969 103.175781 C 93.179688 103.28125 93.445312 103.363281 93.71875 103.414062 C 93.992188 103.46875 94.269531 103.492188 94.546875 103.492188 C 94.828125 103.492188 95.105469 103.464844 95.378906 103.410156 C 95.652344 103.355469 95.917969 103.273438 96.175781 103.167969 C 96.433594 103.058594 96.679688 102.929688 96.910156 102.773438 C 97.144531 102.621094 97.359375 102.445312 97.558594 102.25 C 97.753906 102.050781 97.933594 101.839844 98.089844 101.609375 C 98.246094 101.375 98.378906 101.132812 98.488281 100.875 C 98.597656 100.617188 98.679688 100.351562 98.738281 100.082031 L 103.878906 79.648438 C 103.984375 79.15625 104.039062 78.660156 104.046875 78.15625 C 104.054688 77.65625 104.007812 77.15625 103.917969 76.664062 C 103.824219 76.167969 103.683594 75.6875 103.496094 75.222656 C 103.308594 74.757812 103.074219 74.3125 102.800781 73.894531 C 102.523438 73.472656 102.210938 73.082031 101.855469 72.726562 C 101.503906 72.367188 101.117188 72.050781 100.703125 71.769531 C 100.285156 71.488281 99.84375 71.25 99.382812 71.054688 C 98.917969 70.859375 98.4375 70.714844 97.945312 70.613281 C 93.617188 69.746094 88.238281 68.695312 85.4375 68.152344 C 85.1875 68.105469 84.957031 68.007812 84.75 67.867188 C 84.539062 67.722656 84.363281 67.546875 84.226562 67.335938 C 84.085938 67.121094 83.996094 66.890625 83.953125 66.640625 C 83.90625 66.390625 83.914062 66.140625 83.96875 65.894531 L 86.582031 54.28125 L 91.476562 60.078125 C 92.304688 61.097656 93.320312 61.878906 94.515625 62.425781 C 95.714844 62.96875 96.972656 63.214844 98.285156 63.167969 L 108.507812 62.609375 C 109.039062 62.589844 109.535156 62.460938 110.007812 62.21875 L 113.671875 82.617188 C 113.929688 84.058594 113.960938 85.503906 113.761719 86.957031 C 113.5625 88.410156 113.144531 89.796875 112.507812 91.117188 L 107.386719 101.722656 C 107.105469 102.308594 106.75 102.84375 106.316406 103.324219 C 105.882812 103.808594 105.390625 104.222656 104.84375 104.570312 C 104.292969 104.914062 103.707031 105.175781 103.082031 105.355469 C 102.460938 105.535156 101.824219 105.625 101.175781 105.625 L 91.46875 105.625 C 90.976562 105.625 90.492188 105.570312 90.011719 105.464844 C 89.53125 105.355469 89.070312 105.195312 88.625 104.988281 C 88.183594 104.777344 87.765625 104.519531 87.378906 104.21875 C 86.992188 103.917969 86.644531 103.578125 86.332031 103.195312 C 86.019531 102.816406 85.753906 102.410156 85.53125 101.96875 C 85.3125 101.53125 85.140625 101.074219 85.019531 100.597656 C 84.902344 100.121094 84.835938 99.636719 84.824219 99.148438 C 84.808594 98.65625 84.851562 98.167969 84.945312 97.6875 L 87.503906 84.773438 L 50.746094 84.773438 C 50.230469 84.769531 49.753906 84.90625 49.316406 85.175781 C 48.96875 85.390625 48.507812 85.691406 47.953125 86.070312 C 47.648438 86.28125 47.308594 86.390625 46.9375 86.390625 L 31.222656 86.390625 C 30.972656 86.390625 30.730469 86.441406 30.496094 86.535156 C 30.265625 86.632812 30.058594 86.769531 29.882812 86.949219 C 29.703125 87.125 29.566406 87.332031 29.472656 87.5625 C 29.375 87.796875 29.328125 88.035156 29.328125 88.289062 C 29.328125 88.539062 29.375 88.78125 29.472656 89.015625 C 29.566406 89.246094 29.703125 89.453125 29.882812 89.628906 C 30.058594 89.808594 30.265625 89.945312 30.496094 90.039062 C 30.730469 90.136719 30.972656 90.183594 31.222656 90.183594 L 49.167969 90.183594 C 49.421875 90.183594 49.664062 90.234375 49.894531 90.328125 C 50.128906 90.425781 50.332031 90.5625 50.511719 90.742188 C 50.6875 90.917969 50.824219 91.125 50.921875 91.355469 C 51.015625 91.589844 51.066406 91.828125 51.066406 92.082031 C 51.066406 92.332031 51.015625 92.574219 50.921875 92.808594 C 50.824219 93.039062 50.6875 93.246094 50.511719 93.421875 C 50.332031 93.601562 50.128906 93.738281 49.894531 93.832031 C 49.664062 93.929688 49.421875 93.976562 49.167969 93.976562 L 3.933594 93.976562 C 3.683594 93.976562 3.441406 94.027344 3.207031 94.121094 C 2.976562 94.21875 2.769531 94.355469 2.59375 94.535156 C 2.414062 94.710938 2.277344 94.917969 2.179688 95.148438 C 2.085938 95.382812 2.035156 95.621094 2.035156 95.875 C 2.035156 96.125 2.085938 96.367188 2.179688 96.601562 C 2.277344 96.832031 2.414062 97.039062 2.59375 97.214844 C 2.769531 97.394531 2.976562 97.53125 3.207031 97.625 C 3.441406 97.722656 3.683594 97.769531 3.933594 97.769531 L 40.160156 97.769531 C 40.410156 97.769531 40.65625 97.816406 40.890625 97.910156 C 41.125 98.003906 41.332031 98.140625 41.511719 98.320312 C 41.691406 98.496094 41.832031 98.703125 41.929688 98.9375 C 42.027344 99.171875 42.074219 99.414062 42.074219 99.667969 C 42.074219 99.921875 42.027344 100.164062 41.929688 100.398438 C 41.832031 100.632812 41.691406 100.835938 41.511719 101.015625 C 41.332031 101.191406 41.125 101.328125 40.890625 101.425781 C 40.65625 101.519531 40.410156 101.566406 40.160156 101.5625 L 16.929688 101.5625 C 16.675781 101.5625 16.4375 101.613281 16.203125 101.707031 C 15.972656 101.804688 15.765625 101.941406 15.589844 102.121094 C 15.410156 102.296875 15.273438 102.503906 15.175781 102.734375 C 15.082031 102.964844 15.03125 103.207031 15.03125 103.460938 C 15.03125 103.710938 15.082031 103.953125 15.175781 104.1875 C 15.273438 104.417969 15.410156 104.625 15.589844 104.800781 C 15.765625 104.980469 15.972656 105.117188 16.203125 105.210938 C 16.4375 105.308594 16.675781 105.355469 16.929688 105.355469 L 32.609375 105.355469 C 31.46875 108.640625 30.894531 112.023438 30.898438 115.5 L 37.070312 115.5 C 37.070312 115.539062 37.0625 115.574219 37.0625 115.613281 C 37.0625 116.035156 37.089844 116.453125 37.125 116.871094 C 37.269531 118.605469 37.707031 120.261719 38.4375 121.839844 C 39.171875 123.417969 40.152344 124.824219 41.386719 126.050781 C 41.78125 126.453125 42.199219 126.828125 42.636719 127.179688 C 43.074219 127.53125 43.53125 127.859375 44.007812 128.15625 C 44.484375 128.457031 44.976562 128.726562 45.480469 128.972656 C 45.988281 129.214844 46.507812 129.429688 47.039062 129.609375 C 47.570312 129.792969 48.109375 129.945312 48.660156 130.070312 C 49.210938 130.191406 49.761719 130.28125 50.324219 130.335938 C 50.882812 130.394531 51.441406 130.421875 52.003906 130.414062 C 52.566406 130.40625 53.128906 130.367188 53.683594 130.296875 C 54.242188 130.226562 54.792969 130.125 55.339844 129.988281 C 55.886719 129.855469 56.421875 129.691406 56.949219 129.496094 C 57.476562 129.300781 57.992188 129.074219 58.492188 128.820312 C 58.992188 128.5625 59.476562 128.28125 59.945312 127.96875 C 60.414062 127.660156 60.863281 127.324219 61.296875 126.960938 C 61.726562 126.597656 62.132812 126.214844 62.519531 125.804688 C 62.90625 125.394531 63.265625 124.964844 63.601562 124.515625 C 63.9375 124.0625 64.246094 123.597656 64.53125 123.109375 C 64.699219 122.820312 64.863281 122.53125 65.011719 122.230469 C 65.863281 120.539062 66.367188 118.753906 66.527344 116.871094 C 66.5625 116.453125 66.59375 116.035156 66.59375 115.613281 C 66.59375 115.574219 66.585938 115.539062 66.585938 115.5 L 102.621094 115.5 C 103.5 115.492188 104.363281 115.378906 105.214844 115.164062 C 106.0625 114.949219 106.878906 114.636719 107.652344 114.230469 C 108.429688 113.820312 109.148438 113.328125 109.808594 112.75 C 110.46875 112.171875 111.050781 111.523438 111.554688 110.808594 L 112.171875 109.914062 C 112.039062 111.265625 112.039062 112.621094 112.171875 113.972656 C 112.230469 114.566406 112.328125 115.144531 112.433594 115.71875 C 112.757812 117.472656 113.304688 119.160156 114.066406 120.777344 C 114.320312 120.667969 114.566406 120.535156 114.800781 120.386719 C 115.171875 120.15625 115.523438 119.902344 115.855469 119.617188 C 116.304688 119.234375 116.714844 118.808594 117.082031 118.347656 C 117.296875 118.078125 117.5 117.796875 117.6875 117.503906 C 117.929688 117.121094 118.144531 116.734375 118.351562 116.351562 C 120.484375 112.328125 120.71875 108.242188 125.210938 103.804688 C 125.789062 103.230469 126.410156 102.714844 127.074219 102.246094 Z M 59.96875 115.613281 C 59.964844 116.140625 59.90625 116.664062 59.792969 117.183594 C 59.683594 117.703125 59.527344 118.207031 59.316406 118.691406 C 59.109375 119.179688 58.855469 119.640625 58.558594 120.082031 C 58.261719 120.519531 57.921875 120.921875 57.542969 121.296875 C 57.167969 121.667969 56.757812 122 56.316406 122.292969 C 55.871094 122.582031 55.40625 122.832031 54.917969 123.03125 C 54.425781 123.230469 53.921875 123.382812 53.402344 123.488281 C 52.882812 123.589844 52.355469 123.640625 51.828125 123.640625 C 51.296875 123.640625 50.773438 123.589844 50.25 123.488281 C 49.730469 123.382812 49.226562 123.230469 48.734375 123.03125 C 48.246094 122.832031 47.78125 122.582031 47.335938 122.292969 C 46.894531 122 46.484375 121.667969 46.109375 121.296875 C 45.730469 120.921875 45.394531 120.519531 45.09375 120.082031 C 44.796875 119.640625 44.542969 119.179688 44.335938 118.691406 C 44.128906 118.207031 43.96875 117.703125 43.859375 117.183594 C 43.75 116.664062 43.691406 116.140625 43.683594 115.613281 C 43.683594 115.574219 43.691406 115.539062 43.691406 115.5 L 59.960938 115.5 C 59.960938 115.539062 59.96875 115.574219 59.96875 115.613281 Z M 79.289062 35.066406 C 79.085938 33.542969 78.679688 30.34375 78.722656 29.507812 C 78.992188 23.671875 83.066406 19.121094 89.773438 19.433594 C 90.335938 19.460938 90.890625 19.53125 91.441406 19.644531 C 91.992188 19.761719 92.527344 19.917969 93.050781 20.117188 C 93.578125 20.316406 94.082031 20.558594 94.570312 20.835938 C 95.054688 21.117188 95.515625 21.433594 95.953125 21.789062 C 96.386719 22.144531 96.792969 22.527344 97.167969 22.949219 C 97.542969 23.367188 97.878906 23.8125 98.183594 24.285156 C 98.488281 24.757812 98.75 25.25 98.976562 25.765625 C 99.203125 26.277344 99.382812 26.808594 99.523438 27.351562 L 89.25 26.875 C 89.109375 26.867188 88.972656 26.886719 88.839844 26.933594 C 88.707031 26.984375 88.589844 27.054688 88.484375 27.148438 C 88.378906 27.246094 88.296875 27.355469 88.238281 27.484375 C 88.179688 27.613281 88.144531 27.746094 88.136719 27.886719 L 87.976562 31.367188 C 87.960938 31.699219 88.046875 32 88.238281 32.273438 C 88.425781 32.546875 88.679688 32.734375 88.996094 32.839844 L 99.097656 36.125 C 98.460938 38.007812 97.542969 39.738281 96.34375 41.320312 C 96.15625 41.5625 95.914062 41.726562 95.621094 41.8125 C 95.324219 41.894531 95.035156 41.882812 94.746094 41.773438 L 80.164062 36.171875 C 79.925781 36.082031 79.730469 35.9375 79.574219 35.738281 C 79.417969 35.542969 79.320312 35.316406 79.289062 35.066406 Z M 20.59375 57.070312 L 1.988281 57.070312 C 1.71875 57.070312 1.464844 57.015625 1.21875 56.90625 C 0.972656 56.800781 0.761719 56.644531 0.578125 56.445312 C 0.398438 56.246094 0.269531 56.019531 0.183594 55.761719 C 0.101562 55.507812 0.0742188 55.246094 0.101562 54.980469 C 0.199219 53.992188 1.105469 53.277344 2.097656 53.277344 L 25.457031 53.277344 C 25.722656 53.277344 25.980469 53.222656 26.226562 53.113281 C 26.472656 53.007812 26.683594 52.851562 26.863281 52.652344 C 27.042969 52.453125 27.175781 52.226562 27.257812 51.96875 C 27.34375 51.714844 27.371094 51.453125 27.34375 51.1875 C 27.242188 50.199219 26.339844 49.484375 25.347656 49.484375 L 6.632812 49.484375 C 6.382812 49.484375 6.140625 49.4375 5.90625 49.339844 C 5.675781 49.246094 5.46875 49.109375 5.292969 48.929688 C 5.113281 48.753906 4.976562 48.546875 4.882812 48.316406 C 4.785156 48.082031 4.738281 47.839844 4.738281 47.589844 C 4.738281 47.339844 4.785156 47.097656 4.882812 46.863281 C 4.976562 46.632812 5.113281 46.425781 5.292969 46.25 C 5.46875 46.070312 5.675781 45.933594 5.90625 45.835938 C 6.140625 45.742188 6.382812 45.691406 6.632812 45.691406 L 25.457031 45.691406 C 25.722656 45.691406 25.980469 45.636719 26.226562 45.53125 C 26.472656 45.421875 26.683594 45.265625 26.863281 45.066406 C 27.042969 44.867188 27.175781 44.640625 27.257812 44.382812 C 27.34375 44.128906 27.371094 43.867188 27.34375 43.601562 C 27.242188 42.613281 26.339844 41.898438 25.347656 41.898438 L 12.269531 41.898438 C 12.003906 41.898438 11.746094 41.84375 11.5 41.738281 C 11.253906 41.628906 11.042969 41.472656 10.863281 41.273438 C 10.683594 41.074219 10.550781 40.847656 10.46875 40.589844 C 10.382812 40.335938 10.355469 40.074219 10.382812 39.808594 C 10.484375 38.820312 11.386719 38.105469 12.378906 38.105469 L 20.59375 38.105469 L 20.59375 35.929688 C 20.59375 35.679688 20.640625 35.441406 20.734375 35.210938 C 20.832031 34.980469 20.96875 34.777344 21.144531 34.601562 C 21.320312 34.425781 21.523438 34.289062 21.753906 34.191406 C 21.984375 34.097656 22.222656 34.050781 22.472656 34.050781 L 64.4375 34.050781 C 64.683594 34.050781 64.925781 34.097656 65.15625 34.191406 C 65.382812 34.289062 65.585938 34.425781 65.765625 34.601562 C 65.941406 34.777344 66.074219 34.980469 66.171875 35.210938 C 66.265625 35.441406 66.3125 35.679688 66.3125 35.929688 L 66.3125 72.574219 C 66.3125 72.925781 66.246094 73.257812 66.113281 73.582031 C 65.980469 73.902344 65.789062 74.1875 65.542969 74.433594 C 65.296875 74.679688 65.011719 74.871094 64.691406 75.003906 C 64.371094 75.136719 64.035156 75.203125 63.683594 75.203125 L 22.472656 75.203125 C 22.222656 75.203125 21.984375 75.15625 21.753906 75.0625 C 21.523438 74.964844 21.320312 74.832031 21.144531 74.652344 C 20.96875 74.476562 20.832031 74.273438 20.734375 74.042969 C 20.640625 73.816406 20.59375 73.574219 20.59375 73.324219 L 20.59375 60.863281 L 25.457031 60.863281 C 25.722656 60.863281 25.980469 60.808594 26.226562 60.699219 C 26.472656 60.59375 26.683594 60.4375 26.863281 60.238281 C 27.042969 60.039062 27.175781 59.8125 27.257812 59.554688 C 27.34375 59.300781 27.371094 59.039062 27.34375 58.773438 C 27.242188 57.785156 26.339844 57.070312 25.347656 57.070312 Z M 20.59375 57.070312 " fill-opacity="1" fill-rule="nonzero"/></g></svg>