<svg xmlns="http://www.w3.org/2000/svg" xmlns:xlink="http://www.w3.org/1999/xlink" width="200" zoomAndPan="magnify" viewBox="0 0 150 149.999998" height="200" preserveAspectRatio="xMidYMid meet" version="1.0"><defs><clipPath id="e91deff5da"><path d="M 9.9375 0.148438 L 140.4375 0.148438 L 140.4375 149.863281 L 9.9375 149.863281 Z M 9.9375 0.148438 " clip-rule="nonzero"/></clipPath><clipPath id="88950bbd22"><path d="M 62 47 L 140.4375 47 L 140.4375 139 L 62 139 Z M 62 47 " clip-rule="nonzero"/></clipPath></defs><g clip-path="url(#e91deff5da)"><path fill="#00ae37" d="M 109.558594 7.59375 C 96.855469 7.59375 84.695312 4.953125 75.1875 0.148438 C 65.683594 4.953125 53.519531 7.59375 40.8125 7.59375 C 29.621094 7.59375 18.84375 5.542969 9.9375 1.769531 L 9.9375 63.914062 C 9.9375 104.359375 39.160156 142.785156 75.1875 149.863281 C 111.21875 142.785156 140.4375 104.359375 140.4375 63.914062 L 140.4375 1.769531 C 131.53125 5.542969 120.753906 7.59375 109.558594 7.59375 " fill-opacity="1" fill-rule="nonzero"/></g><path fill="#ffffff" d="M 62.378906 99.894531 L 35.199219 72.789062 L 43.34375 64.667969 L 62.378906 83.652344 L 107.03125 39.128906 L 115.179688 47.25 L 62.378906 99.894531 " fill-opacity="1" fill-rule="nonzero"/><g clip-path="url(#88950bbd22)"><path fill="#008e28" d="M 101.265625 138.671875 C 122.230469 124.304688 137.457031 99.085938 140.046875 72.046875 L 115.179688 47.25 L 62.378906 99.894531 L 101.265625 138.671875 " fill-opacity="1" fill-rule="nonzero"/></g></svg>