<svg xmlns="http://www.w3.org/2000/svg" xmlns:xlink="http://www.w3.org/1999/xlink" width="200" zoomAndPan="magnify" viewBox="0 0 150 149.999998" height="200" preserveAspectRatio="xMidYMid meet" version="1.0"><defs><clipPath id="89274eebe9"><path d="M 0 3.953125 L 150 3.953125 L 150 145.703125 L 0 145.703125 Z M 0 3.953125 " clip-rule="nonzero"/></clipPath></defs><path fill="#ffffff" d="M 57.25 92.980469 C 57.25 92.980469 57.246094 103.910156 58.117188 106.96875 C 58.984375 110.027344 67.519531 116.015625 70.722656 117.414062 C 73.921875 118.808594 81.191406 117.480469 82.992188 116.945312 C 84.792969 116.414062 89.859375 112.621094 90.59375 111.757812 C 91.324219 110.894531 94.207031 104.871094 94.207031 104.871094 L 93.925781 92.863281 C 93.925781 92.863281 88.117188 99.113281 79.652344 98.648438 C 71.191406 98.183594 68.191406 98.253906 65.65625 97.054688 C 63.117188 95.859375 57.25 92.980469 57.25 92.980469 Z M 57.25 92.980469 " fill-opacity="1" fill-rule="evenodd"/><path fill="#f8bc32" d="M 106.132812 46.460938 C 90.945312 47.039062 78.179688 43.542969 67.839844 35.984375 C 64.292969 40.609375 56.625 44.222656 44.839844 46.824219 C 46.296875 27.867188 56.34375 18.046875 74.976562 17.355469 C 92.101562 18.652344 102.484375 28.355469 106.132812 46.460938 Z M 93.941406 93.621094 C 88.949219 97.871094 82.488281 100.449219 75.453125 100.449219 L 75.144531 100.449219 C 72.074219 100.449219 69.121094 99.9375 66.363281 98.992188 C 65.125 98.566406 63.925781 98.058594 62.777344 97.46875 C 61.070312 96.617188 59.457031 95.601562 57.960938 94.4375 C 57.722656 94.253906 57.488281 94.0625 57.257812 93.871094 C 57.269531 95.117188 57.300781 97.503906 57.40625 99.953125 L 57.738281 100.167969 C 58.292969 100.519531 58.863281 100.851562 59.441406 101.171875 L 59.441406 101.144531 C 60.046875 101.484375 60.65625 101.804688 61.28125 102.109375 C 65.5 104.097656 70.199219 105.230469 75.144531 105.273438 C 75.246094 105.273438 75.351562 105.273438 75.453125 105.273438 C 82.339844 105.273438 88.75 103.167969 94.078125 99.574219 Z M 93.941406 93.621094 " fill-opacity="1" fill-rule="evenodd"/><path fill="#f4e042" d="M 2.183594 142.855469 L 148.078125 143.121094 C 148.078125 143.121094 146.082031 124.828125 140.8125 117.511719 C 135.542969 110.195312 121.007812 104.207031 116.539062 103.011719 C 112.074219 101.8125 93.667969 102.609375 93.667969 102.609375 C 93.667969 102.609375 88.445312 114.203125 82.929688 116.046875 C 77.417969 117.890625 68.128906 117.378906 63.058594 113.988281 C 57.992188 110.59375 55.65625 102.34375 55.65625 102.34375 L 36.121094 101.945312 C 36.121094 101.945312 18.515625 106.867188 11.582031 114.714844 C 4.648438 122.570312 3.050781 131.484375 2.183594 142.855469 Z M 2.183594 142.855469 " fill-opacity="1" fill-rule="evenodd"/><path fill="#ffffff" d="M 79.648438 98.648438 C 62.980469 100.644531 56.445312 92.261719 53.179688 89.070312 C 49.914062 85.875 44.378906 71.042969 44.378906 71.042969 L 44.488281 47.265625 C 44.488281 47.265625 55.882812 44.921875 59.648438 42.441406 C 63.414062 39.957031 68.472656 36.433594 68.472656 36.433594 C 68.472656 36.433594 80.160156 43.304688 86.054688 44.507812 C 91.949219 45.714844 104.988281 45.894531 104.988281 45.894531 C 104.988281 45.894531 106.1875 72.039062 105.121094 75.628906 C 104.054688 79.226562 96.320312 96.65625 79.648438 98.648438 Z M 56.828125 105.519531 C 56.730469 105.296875 56.640625 105.078125 56.554688 104.871094 L 40.941406 104.871094 C 29.199219 104.871094 18.519531 109.304688 10.785156 116.441406 C 10.054688 117.113281 9.347656 117.816406 8.671875 118.539062 C 4.164062 125.457031 2.914062 133.285156 2.183594 142.855469 L 3.511719 142.859375 C 3.902344 133.910156 8.03125 125.808594 14.484375 119.851562 C 21.277344 113.585938 30.644531 109.695312 40.945312 109.695312 L 57.558594 109.695312 C 57.316406 108.867188 57.132812 108.015625 57 107.148438 C 56.921875 106.609375 56.859375 106.066406 56.828125 105.519531 Z M 142.148438 119.722656 C 141.152344 118.574219 140.097656 117.476562 138.976562 116.441406 C 131.265625 109.304688 120.625 104.871094 108.921875 104.871094 L 94.210938 104.871094 C 94.1875 105.703125 94.109375 106.523438 93.984375 107.332031 C 93.859375 108.136719 93.683594 108.925781 93.457031 109.695312 L 108.921875 109.695312 C 119.1875 109.695312 128.523438 113.585938 135.289062 119.851562 C 141.785156 125.867188 145.917969 134.070312 146.238281 143.121094 L 148.078125 143.125 C 148.078125 143.121094 146.417969 127.960938 142.148438 119.722656 Z M 53.109375 31.582031 C 58.734375 26.421875 66.492188 23.214844 75.027344 23.214844 C 83.5625 23.214844 91.320312 26.421875 96.945312 31.582031 C 101.097656 35.394531 104.089844 40.273438 105.367188 45.714844 C 106.15625 45.707031 106.945312 45.6875 107.746094 45.65625 C 106.183594 37.914062 103.390625 31.710938 99.367188 27.042969 C 92.917969 21.671875 84.367188 18.386719 75.027344 18.386719 C 68.390625 18.386719 62.148438 20.046875 56.78125 22.929688 C 52.289062 26.546875 49.238281 31.691406 47.625 38.367188 C 49.082031 35.859375 50.9375 33.578125 53.109375 31.582031 Z M 53.109375 31.582031 " fill-opacity="1" fill-rule="evenodd"/><path fill="#4fa022" d="M 43.230469 54.152344 L 43.230469 65.375 C 43.230469 69.757812 39.671875 73.308594 35.28125 73.308594 C 30.890625 73.308594 27.328125 69.757812 27.328125 65.375 L 27.328125 54.152344 C 27.328125 49.773438 30.890625 46.222656 35.28125 46.222656 C 39.671875 46.222656 43.230469 49.773438 43.230469 54.152344 Z M 114.679688 46.171875 C 110.289062 46.171875 106.730469 49.722656 106.730469 54.105469 L 106.730469 65.328125 C 106.730469 69.707031 110.289062 73.257812 114.679688 73.257812 C 119.070312 73.257812 122.628906 69.707031 122.628906 65.328125 L 122.628906 54.105469 C 122.628906 49.722656 119.070312 46.171875 114.679688 46.171875 Z M 79.957031 78.664062 C 77.25 78.664062 75.054688 80.867188 75.054688 83.585938 C 75.054688 86.308594 77.25 88.511719 79.957031 88.511719 C 82.664062 88.511719 84.859375 86.308594 84.859375 83.585938 C 84.859375 80.867188 82.664062 78.664062 79.957031 78.664062 Z M 79.957031 78.664062 " fill-opacity="1" fill-rule="evenodd"/><g clip-path="url(#89274eebe9)"><path fill="#36383e" d="M 138.402344 111.613281 C 131.246094 104.476562 121.367188 100.042969 110.507812 100.042969 L 96.851562 100.042969 C 96.855469 99.863281 96.867188 99.683594 96.867188 99.503906 L 96.867188 92.964844 C 97.457031 92.453125 98.03125 91.917969 98.585938 91.363281 C 100.273438 89.679688 101.785156 87.816406 103.085938 85.804688 C 109.921875 85.023438 115.265625 82.644531 116.628906 76.3125 C 118.800781 75.882812 120.742188 74.816406 122.25 73.3125 C 124.234375 71.332031 125.46875 68.597656 125.46875 65.59375 L 125.46875 53.484375 C 125.46875 50.476562 124.234375 47.746094 122.25 45.765625 L 122.097656 45.625 C 120.789062 44.367188 119.171875 43.433594 117.378906 42.941406 C 117.382812 42.894531 117.386719 42.855469 117.386719 42.808594 C 117.386719 32.105469 112.71875 22.386719 105.195312 15.347656 C 97.707031 8.339844 87.398438 3.992188 76.070312 3.992188 L 73.933594 3.992188 C 62.605469 3.992188 52.296875 8.339844 44.8125 15.347656 C 37.289062 22.386719 32.621094 32.105469 32.621094 42.808594 C 32.621094 42.855469 32.625 42.894531 32.628906 42.941406 C 30.773438 43.449219 29.105469 44.433594 27.769531 45.761719 L 27.757812 45.773438 C 25.773438 47.753906 24.539062 50.488281 24.539062 53.484375 L 24.539062 65.59375 C 24.539062 68.519531 25.714844 71.1875 27.613281 73.15625 L 27.757812 73.3125 C 29.742188 75.289062 32.480469 76.519531 35.492188 76.519531 C 38.027344 76.519531 40.363281 75.648438 42.226562 74.199219 C 43.523438 80.824219 46.800781 86.761719 51.417969 91.367188 C 52.28125 92.234375 53.195312 93.042969 54.148438 93.8125 L 54.148438 99.511719 C 54.148438 99.691406 54.15625 99.871094 54.164062 100.050781 L 39.496094 100.050781 C 28.632812 100.050781 18.757812 104.484375 11.601562 111.621094 C 4.445312 118.753906 0 128.605469 0 139.441406 L 0 143.25 C 0 144.582031 1.082031 145.664062 2.417969 145.664062 L 147.582031 145.664062 C 148.917969 145.664062 150 144.582031 150 143.25 L 150 139.441406 C 150 128.605469 145.554688 118.753906 138.402344 111.613281 Z M 105.949219 80.300781 C 106.742188 78.351562 107.363281 76.304688 107.773438 74.191406 C 108.890625 75.0625 110.179688 75.722656 111.578125 76.113281 C 110.660156 78.242188 108.644531 79.535156 105.949219 80.300781 Z M 118.824219 49.171875 C 119.933594 50.28125 120.621094 51.804688 120.621094 53.480469 L 120.621094 65.589844 C 120.621094 67.265625 119.933594 68.792969 118.824219 69.894531 C 117.710938 71.003906 116.183594 71.691406 114.503906 71.691406 C 112.824219 71.691406 111.292969 71.003906 110.1875 69.894531 L 110.175781 69.894531 C 109.074219 68.796875 108.386719 67.269531 108.386719 65.589844 L 108.386719 53.480469 C 108.386719 51.796875 109.074219 50.273438 110.175781 49.171875 L 110.1875 49.164062 C 111.289062 48.0625 112.820312 47.378906 114.507812 47.378906 C 116.136719 47.378906 117.625 48.015625 118.71875 49.058594 Z M 48.117188 18.851562 C 54.730469 12.660156 63.867188 8.820312 73.929688 8.820312 L 76.066406 8.820312 C 86.125 8.820312 95.265625 12.660156 101.878906 18.851562 C 108.4375 24.992188 112.519531 33.445312 112.539062 42.734375 C 110.960938 43.023438 109.503906 43.652344 108.234375 44.542969 C 107.484375 36.625 103.929688 29.492188 98.578125 24.152344 C 92.53125 18.121094 84.179688 14.371094 74.996094 14.371094 C 65.8125 14.371094 57.460938 18.121094 51.414062 24.152344 C 46.0625 29.492188 42.507812 36.625 41.757812 44.542969 C 40.488281 43.652344 39.03125 43.023438 37.453125 42.734375 C 37.480469 33.445312 41.558594 24.992188 48.117188 18.851562 Z M 103.332031 44.214844 C 97.632812 44.191406 92.15625 43.460938 86.917969 42.03125 C 80.917969 40.394531 75.191406 37.820312 69.746094 34.3125 C 68.8125 33.714844 67.546875 33.824219 66.734375 34.644531 C 64.324219 37.050781 61.230469 39.0625 57.449219 40.667969 C 54.335938 41.988281 50.757812 43.027344 46.726562 43.796875 C 47.59375 37.507812 50.535156 31.855469 54.839844 27.5625 C 60.015625 22.398438 67.15625 19.191406 75.003906 19.191406 C 82.851562 19.191406 89.992188 22.398438 95.167969 27.5625 C 99.5625 31.949219 102.535156 37.757812 103.332031 44.214844 Z M 35.492188 71.691406 C 33.8125 71.691406 32.285156 71.003906 31.175781 69.894531 L 31.066406 69.789062 C 30.023438 68.699219 29.382812 67.214844 29.382812 65.589844 L 29.382812 53.480469 C 29.382812 51.796875 30.066406 50.273438 31.171875 49.171875 L 31.179688 49.164062 C 32.285156 48.0625 33.8125 47.378906 35.5 47.378906 C 37.1875 47.378906 38.714844 48.0625 39.816406 49.164062 L 39.816406 49.171875 C 40.925781 50.28125 41.617188 51.804688 41.617188 53.480469 L 41.617188 65.589844 C 41.617188 67.265625 40.925781 68.792969 39.816406 69.894531 C 38.703125 71.003906 37.171875 71.691406 35.492188 71.691406 Z M 46.449219 67.835938 L 46.449219 48.75 C 51.296875 47.902344 55.59375 46.6875 59.332031 45.097656 C 62.992188 43.542969 66.125 41.628906 68.730469 39.359375 C 74.097656 42.617188 79.734375 45.054688 85.648438 46.667969 C 91.378906 48.230469 97.347656 49.015625 103.550781 49.019531 L 103.550781 67.832031 C 103.550781 72.65625 102.328125 77.203125 100.1875 81.195312 C 96.472656 81.445312 92.253906 81.289062 88.101562 81.132812 L 87.253906 81.101562 C 86.875 79.863281 86.207031 78.753906 85.332031 77.855469 C 83.910156 76.40625 81.945312 75.503906 79.785156 75.503906 C 77.625 75.503906 75.660156 76.402344 74.238281 77.855469 C 72.835938 79.289062 71.964844 81.265625 71.964844 83.4375 C 71.964844 85.609375 72.835938 87.585938 74.238281 89.019531 C 75.660156 90.472656 77.625 91.371094 79.785156 91.371094 C 81.945312 91.371094 83.910156 90.472656 85.332031 89.019531 C 86.175781 88.15625 86.820312 87.097656 87.207031 85.917969 L 87.933594 85.945312 C 90.917969 86.054688 93.929688 86.167969 96.824219 86.144531 C 96.296875 86.769531 95.746094 87.375 95.167969 87.957031 C 89.992188 93.121094 82.851562 96.324219 75.003906 96.324219 C 70.238281 96.324219 65.738281 95.140625 61.777344 93.054688 C 60.464844 92.34375 59.214844 91.53125 58.046875 90.625 C 57.890625 90.503906 57.71875 90.40625 57.546875 90.328125 C 56.597656 89.589844 55.691406 88.800781 54.839844 87.957031 C 49.660156 82.789062 46.449219 75.667969 46.449219 67.835938 Z M 82.761719 83.4375 C 82.761719 84.3125 82.421875 85.101562 81.871094 85.664062 C 81.335938 86.210938 80.59375 86.546875 79.777344 86.546875 C 78.960938 86.546875 78.21875 86.210938 77.683594 85.664062 C 77.132812 85.101562 76.792969 84.3125 76.792969 83.4375 C 76.792969 82.5625 77.132812 81.773438 77.683594 81.210938 C 78.21875 80.664062 78.960938 80.328125 79.777344 80.328125 C 80.59375 80.328125 81.335938 80.664062 81.871094 81.210938 C 82.421875 81.773438 82.761719 82.5625 82.761719 83.4375 Z M 61.324219 98.207031 C 62.304688 98.660156 63.3125 99.070312 64.34375 99.425781 C 67.417969 100.480469 70.703125 101.074219 74.109375 101.136719 C 74.140625 101.136719 74.175781 101.136719 74.207031 101.140625 C 74.371094 101.144531 74.527344 101.152344 74.6875 101.152344 L 76.316406 101.152344 C 79.925781 101.152344 83.410156 100.546875 86.667969 99.429688 C 88.53125 98.789062 90.324219 97.980469 92.019531 97.015625 L 92.019531 99.507812 C 92.019531 103.902344 90.21875 107.894531 87.316406 110.789062 C 84.414062 113.683594 80.40625 115.484375 76.007812 115.484375 L 75 115.484375 C 70.597656 115.484375 66.597656 113.683594 63.695312 110.789062 C 60.792969 107.894531 58.988281 103.898438 58.988281 99.507812 L 58.988281 97.042969 C 59.75 97.457031 60.527344 97.847656 61.324219 98.207031 Z M 4.835938 139.441406 C 4.835938 129.933594 8.738281 121.292969 15.019531 115.023438 C 21.300781 108.757812 29.964844 104.867188 39.496094 104.867188 L 54.863281 104.867188 C 55.828125 108.441406 57.71875 111.644531 60.273438 114.191406 C 63.511719 117.421875 67.808594 119.597656 72.582031 120.15625 L 72.582031 140.832031 L 4.835938 140.832031 Z M 145.164062 140.835938 L 77.417969 140.835938 L 77.417969 120.253906 C 82.597656 119.90625 87.273438 117.65625 90.738281 114.195312 C 93.292969 111.648438 95.1875 108.441406 96.148438 104.871094 L 110.503906 104.871094 C 120.035156 104.871094 128.695312 108.761719 134.976562 115.027344 C 141.257812 121.292969 145.160156 129.9375 145.160156 139.445312 L 145.160156 140.835938 Z M 145.164062 140.835938 " fill-opacity="1" fill-rule="nonzero"/></g></svg>