<!--?xml version="1.0" standalone="no"?-->
              <svg id="sw-js-blob-svg" viewBox="0 0 100 100" xmlns="http://www.w3.org/2000/svg" version="1.1">
                    <defs> 
                        <linearGradient id="sw-gradient" x1="0" x2="1" y1="1" y2="0">
                            <stop id="stop1" stop-color="#FFE715" offset="0%"></stop>
                            <stop id="stop2" stop-color="#FFE715" offset="100%"></stop>
                        </linearGradient>
                    </defs>
                <path fill="url(#sw-gradient)" d="M24.5,-29.4C30.3,-24.4,32.6,-15.2,35.1,-5.5C37.6,4.2,40.5,14.6,36.9,21.7C33.3,28.8,23.2,32.5,13.8,34.6C4.3,36.6,-4.6,36.9,-13.7,34.8C-22.8,32.8,-32.1,28.3,-37.2,20.8C-42.3,13.3,-43.2,2.8,-40,-5.6C-36.8,-13.9,-29.4,-20.1,-22,-24.8C-14.7,-29.5,-7.3,-32.8,1,-34C9.4,-35.2,18.7,-34.3,24.5,-29.4Z" width="100%" height="100%" transform="translate(50 50)" stroke-width="0" style="transition: all 0.3s ease 0s;" stroke="url(#sw-gradient)"></path>
              </svg>