<svg xmlns="http://www.w3.org/2000/svg" xmlns:xlink="http://www.w3.org/1999/xlink" width="400" zoomAndPan="magnify" viewBox="0 0 300 149.999998" height="200" preserveAspectRatio="xMidYMid meet" version="1.0"><defs><filter x="0%" y="0%" width="100%" height="100%" id="0c7f9db8be"><feColorMatrix values="0 0 0 0 1 0 0 0 0 1 0 0 0 0 1 0 0 0 1 0" color-interpolation-filters="sRGB"/></filter><g/><clipPath id="7ae4f31b53"><path d="M 34 62 L 42 62 L 42 90 L 34 90 Z M 34 62 " clip-rule="nonzero"/></clipPath><clipPath id="5160b3d7a5"><path d="M 50.515625 -15.449219 L 154.089844 57.40625 L 78.109375 165.417969 L -25.460938 92.5625 Z M 50.515625 -15.449219 " clip-rule="nonzero"/></clipPath><clipPath id="1c85299036"><path d="M 50.515625 -15.449219 L 154.089844 57.40625 L 78.109375 165.417969 L -25.460938 92.5625 Z M 50.515625 -15.449219 " clip-rule="nonzero"/></clipPath><clipPath id="e4f59ab411"><path d="M 75 17 L 103 17 L 103 45 L 75 45 Z M 75 17 " clip-rule="nonzero"/></clipPath><clipPath id="55fa984a94"><path d="M 50.515625 -15.449219 L 154.089844 57.40625 L 78.109375 165.417969 L -25.460938 92.5625 Z M 50.515625 -15.449219 " clip-rule="nonzero"/></clipPath><clipPath id="12b39bea00"><path d="M 50.515625 -15.449219 L 154.089844 57.40625 L 78.109375 165.417969 L -25.460938 92.5625 Z M 50.515625 -15.449219 " clip-rule="nonzero"/></clipPath><clipPath id="dd92d16cdb"><path d="M 20 5 L 80 5 L 80 65 L 20 65 Z M 20 5 " clip-rule="nonzero"/></clipPath><clipPath id="16315cda4c"><path d="M 50.515625 -15.449219 L 154.089844 57.40625 L 78.109375 165.417969 L -25.460938 92.5625 Z M 50.515625 -15.449219 " clip-rule="nonzero"/></clipPath><clipPath id="0dcd1d825a"><path d="M 50.515625 -15.449219 L 154.089844 57.40625 L 78.109375 165.417969 L -25.460938 92.5625 Z M 50.515625 -15.449219 " clip-rule="nonzero"/></clipPath><clipPath id="9668e3793a"><path d="M 31 15 L 61 15 L 61 50 L 31 50 Z M 31 15 " clip-rule="nonzero"/></clipPath><clipPath id="4f73bb9ac6"><path d="M 50.515625 -15.449219 L 154.089844 57.40625 L 78.109375 165.417969 L -25.460938 92.5625 Z M 50.515625 -15.449219 " clip-rule="nonzero"/></clipPath><clipPath id="1a2268a4ae"><path d="M 50.515625 -15.449219 L 154.089844 57.40625 L 78.109375 165.417969 L -25.460938 92.5625 Z M 50.515625 -15.449219 " clip-rule="nonzero"/></clipPath><clipPath id="4a8673bf31"><path d="M 34 77 L 117 77 L 117 139 L 34 139 Z M 34 77 " clip-rule="nonzero"/></clipPath><clipPath id="77557f5794"><path d="M 50.515625 -15.449219 L 154.089844 57.40625 L 78.109375 165.417969 L -25.460938 92.5625 Z M 50.515625 -15.449219 " clip-rule="nonzero"/></clipPath><clipPath id="f2c520c9ab"><path d="M 50.515625 -15.449219 L 154.089844 57.40625 L 78.109375 165.417969 L -25.460938 92.5625 Z M 50.515625 -15.449219 " clip-rule="nonzero"/></clipPath><clipPath id="b49edd8963"><path d="M 72 127 L 100 127 L 100 137 L 72 137 Z M 72 127 " clip-rule="nonzero"/></clipPath><clipPath id="235c269f59"><path d="M 50.515625 -15.449219 L 154.089844 57.40625 L 78.109375 165.417969 L -25.460938 92.5625 Z M 50.515625 -15.449219 " clip-rule="nonzero"/></clipPath><clipPath id="44c3abe251"><path d="M 50.515625 -15.449219 L 154.089844 57.40625 L 78.109375 165.417969 L -25.460938 92.5625 Z M 50.515625 -15.449219 " clip-rule="nonzero"/></clipPath><clipPath id="56951b53e7"><path d="M 28 10 L 109 10 L 109 105 L 28 105 Z M 28 10 " clip-rule="nonzero"/></clipPath><clipPath id="eecbc0491a"><path d="M 50.515625 -15.449219 L 154.089844 57.40625 L 78.109375 165.417969 L -25.460938 92.5625 Z M 50.515625 -15.449219 " clip-rule="nonzero"/></clipPath><clipPath id="d669f20465"><path d="M 50.515625 -15.449219 L 154.089844 57.40625 L 78.109375 165.417969 L -25.460938 92.5625 Z M 50.515625 -15.449219 " clip-rule="nonzero"/></clipPath><mask id="aec1cd87a6"><g filter="url(#0c7f9db8be)"><rect x="-30" width="360" fill="#000000" y="-15" height="179.999997" fill-opacity="0.46"/></g></mask><clipPath id="12bfa7719c"><path d="M 6 64 L 14 64 L 14 80 L 6 80 Z M 6 64 " clip-rule="nonzero"/></clipPath><clipPath id="ae56e0eccc"><path d="M 22.515625 -25.449219 L 126.089844 47.40625 L 50.109375 155.417969 L -53.460938 82.5625 Z M 22.515625 -25.449219 " clip-rule="nonzero"/></clipPath><clipPath id="62eb17d1d5"><path d="M 22.515625 -25.449219 L 126.089844 47.40625 L 50.109375 155.417969 L -53.460938 82.5625 Z M 22.515625 -25.449219 " clip-rule="nonzero"/></clipPath><clipPath id="0757ec1ab5"><path d="M 67 17 L 75 17 L 75 35 L 67 35 Z M 67 17 " clip-rule="nonzero"/></clipPath><clipPath id="76029fc865"><path d="M 22.515625 -25.449219 L 126.089844 47.40625 L 50.109375 155.417969 L -53.460938 82.5625 Z M 22.515625 -25.449219 " clip-rule="nonzero"/></clipPath><clipPath id="69ed1b1ca8"><path d="M 22.515625 -25.449219 L 126.089844 47.40625 L 50.109375 155.417969 L -53.460938 82.5625 Z M 22.515625 -25.449219 " clip-rule="nonzero"/></clipPath><clipPath id="0dc456b023"><rect x="0" width="81" y="0" height="95"/></clipPath><clipPath id="29d205e215"><path d="M 3 31 L 134 31 L 134 125 L 3 125 Z M 3 31 " clip-rule="nonzero"/></clipPath><clipPath id="2b40637af1"><path d="M 50.515625 -15.449219 L 154.089844 57.40625 L 78.109375 165.417969 L -25.460938 92.5625 Z M 50.515625 -15.449219 " clip-rule="nonzero"/></clipPath><clipPath id="1e81d8b4b1"><path d="M 50.515625 -15.449219 L 154.089844 57.40625 L 78.109375 165.417969 L -25.460938 92.5625 Z M 50.515625 -15.449219 " clip-rule="nonzero"/></clipPath><clipPath id="5b33eb3e2f"><path d="M 36 103 L 48 103 L 48 120 L 36 120 Z M 36 103 " clip-rule="nonzero"/></clipPath><clipPath id="d5fd501a62"><path d="M 50.515625 -15.449219 L 154.089844 57.40625 L 78.109375 165.417969 L -25.460938 92.5625 Z M 50.515625 -15.449219 " clip-rule="nonzero"/></clipPath><clipPath id="ef79240ab6"><path d="M 50.515625 -15.449219 L 154.089844 57.40625 L 78.109375 165.417969 L -25.460938 92.5625 Z M 50.515625 -15.449219 " clip-rule="nonzero"/></clipPath><clipPath id="bffdad3590"><path d="M 54 72 L 102 72 L 102 95 L 54 95 Z M 54 72 " clip-rule="nonzero"/></clipPath><clipPath id="1d00227046"><path d="M 50.515625 -15.449219 L 154.089844 57.40625 L 78.109375 165.417969 L -25.460938 92.5625 Z M 50.515625 -15.449219 " clip-rule="nonzero"/></clipPath><clipPath id="4205decd1c"><path d="M 50.515625 -15.449219 L 154.089844 57.40625 L 78.109375 165.417969 L -25.460938 92.5625 Z M 50.515625 -15.449219 " clip-rule="nonzero"/></clipPath><clipPath id="2acb72e587"><path d="M 16 62 L 84 62 L 84 84 L 16 84 Z M 16 62 " clip-rule="nonzero"/></clipPath><clipPath id="ebfd98ebd9"><path d="M 50.515625 -15.449219 L 154.089844 57.40625 L 78.109375 165.417969 L -25.460938 92.5625 Z M 50.515625 -15.449219 " clip-rule="nonzero"/></clipPath><clipPath id="7b96a83279"><path d="M 50.515625 -15.449219 L 154.089844 57.40625 L 78.109375 165.417969 L -25.460938 92.5625 Z M 50.515625 -15.449219 " clip-rule="nonzero"/></clipPath></defs><g clip-path="url(#7ae4f31b53)"><g clip-path="url(#5160b3d7a5)"><g clip-path="url(#1c85299036)"><path fill="#9d1c66" d="M 37.523438 65.019531 L 34.558594 62.9375 L 34.46875 83.863281 L 35.484375 87.851562 C 36.148438 88.089844 36.8125 88.339844 37.441406 88.648438 C 38.539062 89.15625 39.695312 89.414062 40.90625 89.421875 L 41.085938 89.414062 L 41.203125 65.566406 C 40.582031 65.769531 39.945312 65.824219 39.296875 65.730469 C 38.648438 65.632812 38.058594 65.398438 37.523438 65.019531 Z M 37.523438 65.019531 " fill-opacity="1" fill-rule="nonzero"/></g></g></g><g clip-path="url(#e4f59ab411)"><g clip-path="url(#55fa984a94)"><g clip-path="url(#12b39bea00)"><path fill="#9d1c66" d="M 102.628906 40.945312 L 102.664062 28.757812 C 102.667969 28.007812 102.597656 27.269531 102.453125 26.535156 C 102.3125 25.800781 102.097656 25.085938 101.816406 24.394531 C 101.53125 23.703125 101.183594 23.042969 100.769531 22.421875 C 100.355469 21.796875 99.886719 21.21875 99.359375 20.6875 C 98.832031 20.15625 98.257812 19.683594 97.636719 19.265625 C 97.015625 18.847656 96.363281 18.492188 95.671875 18.203125 C 94.980469 17.914062 94.269531 17.695312 93.539062 17.546875 C 92.804688 17.398438 92.0625 17.324219 91.316406 17.320312 L 76.371094 17.265625 C 76.117188 17.265625 75.9375 17.378906 75.828125 17.609375 C 75.769531 17.730469 75.710938 17.851562 75.640625 17.96875 L 75.140625 18.816406 L 76.011719 18.738281 C 76.917969 18.648438 77.769531 18.824219 78.566406 19.269531 C 79.09375 19.578125 79.53125 19.980469 79.882812 20.480469 C 80.230469 20.980469 80.457031 21.535156 80.558594 22.136719 L 81.785156 29.171875 L 92.769531 29.214844 C 93.203125 29.21875 93.617188 29.304688 94.019531 29.472656 C 94.417969 29.640625 94.769531 29.875 95.074219 30.183594 C 95.378906 30.492188 95.613281 30.847656 95.777344 31.246094 C 95.941406 31.648438 96.023438 32.0625 96.023438 32.496094 L 95.964844 44.085938 C 96.503906 43.730469 97.074219 41.242188 97.636719 40.917969 C 99.226562 40.035156 100.890625 41.476562 102.628906 40.945312 Z M 102.628906 40.945312 " fill-opacity="1" fill-rule="nonzero"/></g></g></g><g clip-path="url(#dd92d16cdb)"><g clip-path="url(#16315cda4c)"><g clip-path="url(#0dcd1d825a)"><path fill="#204188" d="M 69.390625 56.917969 L 77.597656 45.253906 C 77.679688 45.136719 77.710938 45.003906 77.695312 44.855469 C 77.675781 44.710938 77.609375 44.589844 77.496094 44.496094 L 73.03125 40.773438 C 73.195312 40.148438 73.335938 39.53125 73.449219 38.914062 L 79.078125 37.445312 C 79.222656 37.410156 79.332031 37.328125 79.414062 37.203125 C 79.492188 37.082031 79.519531 36.945312 79.492188 36.800781 L 77.046875 22.746094 C 77.019531 22.601562 76.949219 22.484375 76.832031 22.394531 C 76.714844 22.308594 76.582031 22.269531 76.4375 22.28125 L 70.644531 22.800781 C 70.328125 22.253906 69.988281 21.714844 69.625 21.195312 L 72.566406 16.179688 C 72.640625 16.054688 72.664062 15.917969 72.632812 15.773438 C 72.601562 15.628906 72.523438 15.515625 72.402344 15.429688 L 60.738281 7.226562 C 60.617188 7.140625 60.484375 7.105469 60.339844 7.125 C 60.191406 7.144531 60.070312 7.210938 59.976562 7.324219 L 56.253906 11.789062 C 55.636719 11.625 55.019531 11.484375 54.394531 11.371094 L 52.925781 5.746094 C 52.890625 5.601562 52.808594 5.492188 52.683594 5.410156 C 52.5625 5.332031 52.425781 5.304688 52.28125 5.328125 L 38.230469 7.777344 C 38.085938 7.800781 37.96875 7.871094 37.878906 7.988281 C 37.789062 8.105469 37.75 8.234375 37.761719 8.382812 L 38.285156 14.179688 C 37.742188 14.496094 37.203125 14.835938 36.679688 15.199219 L 31.660156 12.253906 C 31.535156 12.179688 31.398438 12.160156 31.253906 12.191406 C 31.113281 12.222656 30.996094 12.296875 30.914062 12.417969 L 22.710938 24.082031 C 22.625 24.203125 22.59375 24.335938 22.609375 24.480469 C 22.628906 24.625 22.695312 24.746094 22.808594 24.839844 L 27.269531 28.566406 C 27.105469 29.183594 26.96875 29.804688 26.851562 30.425781 L 21.226562 31.890625 C 21.082031 31.929688 20.972656 32.007812 20.894531 32.132812 C 20.8125 32.257812 20.785156 32.390625 20.8125 32.535156 L 23.265625 46.578125 C 23.292969 46.722656 23.363281 46.839844 23.480469 46.929688 C 23.597656 47.019531 23.730469 47.054688 23.875 47.042969 L 29.667969 46.523438 C 29.988281 47.070312 30.328125 47.605469 30.6875 48.132812 L 27.746094 53.144531 C 27.671875 53.273438 27.648438 53.40625 27.679688 53.550781 C 27.710938 53.695312 27.789062 53.8125 27.90625 53.894531 L 39.574219 62.101562 C 39.695312 62.1875 39.828125 62.21875 39.976562 62.199219 C 40.121094 62.179688 40.242188 62.113281 40.335938 62 L 44.058594 57.535156 C 44.675781 57.703125 45.292969 57.839844 45.917969 57.953125 L 47.386719 63.578125 C 47.421875 63.722656 47.503906 63.835938 47.628906 63.914062 C 47.75 63.996094 47.886719 64.023438 48.03125 63.996094 L 62.082031 61.546875 C 62.226562 61.523438 62.34375 61.453125 62.433594 61.335938 C 62.523438 61.21875 62.5625 61.085938 62.546875 60.941406 L 62.023438 55.148438 C 62.574219 54.832031 63.109375 54.492188 63.632812 54.128906 L 68.648438 57.070312 C 68.773438 57.140625 68.90625 57.164062 69.050781 57.136719 C 69.191406 57.105469 69.304688 57.035156 69.390625 56.917969 Z M 41.101562 47.539062 C 40.253906 46.941406 39.476562 46.269531 38.761719 45.523438 C 38.050781 44.773438 37.414062 43.964844 36.863281 43.089844 C 36.308594 42.21875 35.84375 41.300781 35.472656 40.335938 C 35.101562 39.371094 34.824219 38.378906 34.648438 37.359375 C 34.472656 36.34375 34.394531 35.316406 34.417969 34.28125 C 34.445312 33.25 34.570312 32.226562 34.796875 31.21875 C 35.023438 30.210938 35.34375 29.234375 35.761719 28.289062 C 36.179688 27.34375 36.6875 26.449219 37.28125 25.601562 C 37.875 24.757812 38.546875 23.976562 39.296875 23.265625 C 40.046875 22.550781 40.855469 21.917969 41.730469 21.363281 C 42.601562 20.8125 43.519531 20.347656 44.484375 19.976562 C 45.449219 19.601562 46.441406 19.328125 47.460938 19.152344 C 48.476562 18.972656 49.503906 18.898438 50.535156 18.921875 C 51.570312 18.949219 52.589844 19.074219 53.601562 19.300781 C 54.609375 19.523438 55.585938 19.847656 56.53125 20.265625 C 57.476562 20.683594 58.371094 21.191406 59.21875 21.785156 C 60.0625 22.382812 60.84375 23.050781 61.554688 23.800781 C 62.269531 24.550781 62.902344 25.359375 63.453125 26.234375 C 64.007812 27.105469 64.472656 28.023438 64.84375 28.988281 C 65.214844 29.953125 65.492188 30.945312 65.667969 31.964844 C 65.84375 32.980469 65.921875 34.007812 65.894531 35.042969 C 65.871094 36.074219 65.746094 37.097656 65.519531 38.105469 C 65.292969 39.113281 64.972656 40.089844 64.550781 41.035156 C 64.132812 41.980469 63.628906 42.875 63.03125 43.722656 C 62.4375 44.566406 61.765625 45.34375 61.015625 46.058594 C 60.269531 46.773438 59.457031 47.40625 58.585938 47.957031 C 57.710938 48.511719 56.792969 48.972656 55.828125 49.347656 C 54.867188 49.71875 53.875 49.992188 52.855469 50.171875 C 51.839844 50.347656 50.8125 50.425781 49.777344 50.398438 C 48.746094 50.375 47.726562 50.25 46.714844 50.023438 C 45.707031 49.796875 44.730469 49.476562 43.785156 49.058594 C 42.839844 48.636719 41.945312 48.132812 41.101562 47.539062 Z M 41.101562 47.539062 " fill-opacity="1" fill-rule="nonzero"/></g></g></g><g clip-path="url(#9668e3793a)"><g clip-path="url(#4f73bb9ac6)"><g clip-path="url(#1a2268a4ae)"><path fill="#ffffff" d="M 60.886719 19.410156 C 58.832031 18.097656 56.613281 17.207031 54.21875 16.746094 C 51.828125 16.28125 49.4375 16.273438 47.042969 16.722656 C 46.457031 16.835938 45.882812 16.972656 45.3125 17.140625 C 44.738281 17.304688 44.179688 17.5 43.625 17.71875 C 43.074219 17.941406 42.535156 18.1875 42.007812 18.460938 C 41.476562 18.730469 40.964844 19.027344 40.464844 19.351562 C 39.964844 19.671875 39.480469 20.019531 39.015625 20.386719 C 38.550781 20.753906 38.101562 21.144531 37.671875 21.558594 C 37.242188 21.96875 36.835938 22.402344 36.449219 22.851562 C 36.0625 23.304688 35.695312 23.769531 35.355469 24.257812 C 35.011719 24.742188 34.695312 25.246094 34.402344 25.761719 C 34.109375 26.277344 33.839844 26.808594 33.597656 27.351562 C 33.355469 27.894531 33.140625 28.445312 32.949219 29.011719 C 32.761719 29.574219 32.597656 30.144531 32.464844 30.722656 C 32.328125 31.304688 32.222656 31.886719 32.144531 32.476562 C 32.066406 33.066406 32.019531 33.65625 31.996094 34.25 C 31.976562 34.847656 31.984375 35.441406 32.019531 36.03125 C 32.058594 36.625 32.121094 37.214844 32.214844 37.804688 C 32.601562 40.207031 33.417969 42.457031 34.660156 44.550781 C 35.90625 46.644531 37.492188 48.433594 39.421875 49.921875 C 37.324219 48.570312 35.574219 46.863281 34.175781 44.792969 C 32.773438 42.699219 31.835938 40.417969 31.359375 37.941406 C 30.882812 35.453125 30.910156 32.96875 31.4375 30.492188 C 31.699219 29.261719 32.085938 28.066406 32.589844 26.910156 C 33.09375 25.757812 33.710938 24.664062 34.433594 23.632812 C 35.160156 22.601562 35.980469 21.652344 36.898438 20.789062 C 37.8125 19.921875 38.808594 19.15625 39.878906 18.492188 C 42.035156 17.148438 44.371094 16.277344 46.882812 15.875 C 49.375 15.476562 51.847656 15.582031 54.300781 16.191406 C 56.714844 16.8125 58.910156 17.886719 60.886719 19.410156 Z M 60.886719 19.410156 " fill-opacity="1" fill-rule="nonzero"/></g></g></g><g clip-path="url(#4a8673bf31)"><g clip-path="url(#77557f5794)"><g clip-path="url(#f2c520c9ab)"><path fill="#204188" d="M 116.390625 80.144531 C 114.417969 80.605469 112.417969 80.832031 110.390625 80.824219 C 107.378906 80.804688 104.453125 80.289062 101.617188 79.277344 C 100.902344 79.027344 100.191406 78.722656 99.488281 78.414062 C 98.390625 77.902344 97.234375 77.648438 96.019531 77.644531 C 95.960938 77.644531 95.902344 77.648438 95.839844 77.648438 L 95.699219 114.332031 C 95.695312 114.765625 95.609375 115.183594 95.441406 115.582031 C 95.277344 115.980469 95.039062 116.332031 94.730469 116.636719 C 94.421875 116.941406 94.070312 117.179688 93.667969 117.34375 C 93.269531 117.507812 92.851562 117.589844 92.417969 117.589844 L 47.265625 117.421875 C 45.621094 119.554688 43.695312 121.386719 41.484375 122.925781 C 39.273438 124.460938 36.882812 125.625 34.3125 126.421875 L 34.308594 127.15625 C 34.308594 127.902344 34.378906 128.644531 34.519531 129.378906 C 34.664062 130.113281 34.875 130.828125 35.160156 131.519531 C 35.441406 132.210938 35.792969 132.867188 36.203125 133.492188 C 36.617188 134.117188 37.085938 134.691406 37.613281 135.222656 C 38.140625 135.753906 38.714844 136.230469 39.335938 136.648438 C 39.957031 137.066406 40.609375 137.417969 41.300781 137.707031 C 41.992188 137.996094 42.703125 138.214844 43.4375 138.363281 C 44.167969 138.511719 44.910156 138.585938 45.65625 138.589844 L 90.847656 138.769531 C 91.597656 138.769531 92.335938 138.699219 93.070312 138.558594 C 93.804688 138.414062 94.519531 138.203125 95.210938 137.917969 C 95.902344 137.632812 96.5625 137.285156 97.183594 136.875 C 97.808594 136.460938 98.386719 135.988281 98.917969 135.464844 C 99.449219 134.9375 99.921875 134.363281 100.339844 133.742188 C 100.757812 133.121094 101.113281 132.46875 101.398438 131.777344 C 101.6875 131.085938 101.90625 130.375 102.054688 129.640625 C 102.203125 128.910156 102.28125 128.167969 102.285156 127.421875 L 102.457031 83.324219 C 105.371094 83.390625 111.878906 83.136719 116.390625 80.144531 Z M 68.273438 133.746094 C 67.882812 133.742188 67.5 133.707031 67.121094 133.628906 C 66.738281 133.550781 66.371094 133.4375 66.011719 133.289062 C 65.652344 133.140625 65.3125 132.957031 64.992188 132.738281 C 64.671875 132.523438 64.371094 132.277344 64.097656 132 C 63.824219 131.726562 63.582031 131.425781 63.367188 131.105469 C 63.152344 130.78125 62.96875 130.4375 62.824219 130.082031 C 62.675781 129.722656 62.5625 129.351562 62.488281 128.96875 C 62.414062 128.589844 62.378906 128.207031 62.378906 127.816406 C 62.378906 127.429688 62.417969 127.042969 62.496094 126.664062 C 62.574219 126.285156 62.6875 125.914062 62.835938 125.558594 C 62.984375 125.199219 63.167969 124.859375 63.386719 124.535156 C 63.601562 124.214844 63.847656 123.917969 64.121094 123.644531 C 64.398438 123.371094 64.699219 123.125 65.019531 122.910156 C 65.34375 122.695312 65.683594 122.515625 66.042969 122.367188 C 66.402344 122.21875 66.773438 122.109375 67.152344 122.035156 C 67.535156 121.960938 67.917969 121.921875 68.308594 121.921875 C 68.695312 121.925781 69.078125 121.964844 69.460938 122.039062 C 69.839844 122.117188 70.210938 122.230469 70.566406 122.378906 C 70.925781 122.53125 71.265625 122.710938 71.589844 122.929688 C 71.910156 123.144531 72.207031 123.390625 72.480469 123.667969 C 72.753906 123.941406 73 124.242188 73.214844 124.5625 C 73.429688 124.886719 73.609375 125.230469 73.757812 125.585938 C 73.90625 125.945312 74.015625 126.316406 74.089844 126.695312 C 74.164062 127.078125 74.203125 127.460938 74.203125 127.851562 C 74.199219 128.238281 74.160156 128.625 74.085938 129.003906 C 74.007812 129.382812 73.894531 129.753906 73.746094 130.113281 C 73.59375 130.46875 73.414062 130.808594 73.195312 131.132812 C 72.980469 131.453125 72.734375 131.753906 72.457031 132.027344 C 72.183594 132.300781 71.882812 132.542969 71.558594 132.757812 C 71.238281 132.972656 70.894531 133.15625 70.535156 133.300781 C 70.175781 133.449219 69.808594 133.558594 69.425781 133.636719 C 69.046875 133.710938 68.660156 133.746094 68.273438 133.746094 Z M 68.273438 133.746094 " fill-opacity="1" fill-rule="nonzero"/></g></g></g><g clip-path="url(#b49edd8963)"><g clip-path="url(#235c269f59)"><g clip-path="url(#44c3abe251)"><path fill="#ffffff" d="M 99.371094 127.40625 C 99.46875 128.785156 99.234375 130.105469 98.664062 131.367188 C 98.367188 132.003906 98 132.597656 97.558594 133.144531 C 97.117188 133.691406 96.617188 134.179688 96.058594 134.601562 C 95.496094 135.027344 94.894531 135.378906 94.246094 135.65625 C 93.601562 135.933594 92.929688 136.128906 92.238281 136.242188 C 92.0625 136.265625 91.886719 136.308594 91.714844 136.320312 L 91.183594 136.347656 C 90.820312 136.375 90.503906 136.359375 90.164062 136.367188 L 88.164062 136.371094 L 84.160156 136.324219 C 82.832031 136.28125 81.492188 136.273438 80.15625 136.21875 C 77.488281 136.125 74.820312 135.996094 72.152344 135.761719 C 74.820312 135.542969 77.492188 135.4375 80.160156 135.367188 C 81.492188 135.320312 82.828125 135.316406 84.164062 135.292969 L 88.179688 135.285156 L 90.183594 135.304688 C 90.511719 135.304688 90.855469 135.332031 91.164062 135.300781 L 91.625 135.277344 C 91.78125 135.265625 91.933594 135.238281 92.101562 135.230469 C 93.375 135.066406 94.539062 134.625 95.601562 133.902344 C 96.683594 133.179688 97.554688 132.253906 98.207031 131.125 C 98.863281 129.96875 99.253906 128.730469 99.371094 127.40625 Z M 99.371094 127.40625 " fill-opacity="1" fill-rule="nonzero"/></g></g></g><g clip-path="url(#56951b53e7)"><g clip-path="url(#eecbc0491a)"><g clip-path="url(#d669f20465)"><g mask="url(#aec1cd87a6)"><g transform="matrix(1, 0, 0, 1, 28, 10)"><g clip-path="url(#0dc456b023)"><g clip-path="url(#12bfa7719c)"><g clip-path="url(#ae56e0eccc)"><g clip-path="url(#62eb17d1d5)"><path fill="#204188" d="M 13.085938 79.40625 L 13.144531 66.617188 L 12.964844 66.621094 C 11.992188 66.617188 11.0625 66.410156 10.179688 66 C 8.992188 65.453125 7.769531 64.996094 6.515625 64.621094 L 6.46875 73.863281 L 7.484375 77.851562 C 8.148438 78.089844 8.8125 78.339844 9.441406 78.648438 C 10.539062 79.15625 11.695312 79.414062 12.90625 79.421875 Z M 13.085938 79.40625 " fill-opacity="1" fill-rule="nonzero"/></g></g></g><g clip-path="url(#0757ec1ab5)"><g clip-path="url(#76029fc865)"><g clip-path="url(#69ed1b1ca8)"><path fill="#204188" d="M 74.628906 30.945312 L 74.664062 18.757812 C 74.664062 18.425781 74.652344 18.105469 74.625 17.78125 C 72.617188 18.371094 70.703125 19.171875 68.878906 20.1875 C 68.453125 20.425781 68.035156 20.675781 67.621094 20.933594 C 67.886719 21.421875 68.019531 21.945312 68.015625 22.5 L 67.964844 34.085938 C 68.503906 33.730469 69.074219 31.242188 69.636719 30.917969 C 71.226562 30.035156 72.890625 31.476562 74.628906 30.945312 Z M 74.628906 30.945312 " fill-opacity="1" fill-rule="nonzero"/></g></g></g></g></g></g></g></g></g><g clip-path="url(#29d205e215)"><g clip-path="url(#2b40637af1)"><g clip-path="url(#1e81d8b4b1)"><path fill="#f78c02" d="M 49.328125 104.054688 C 49.441406 103.15625 49.660156 102.28125 49.980469 101.4375 C 50.300781 100.589844 50.71875 99.792969 51.226562 99.042969 C 51.738281 98.296875 52.328125 97.617188 52.996094 97.007812 C 53.667969 96.398438 54.398438 95.878906 55.191406 95.441406 L 90.355469 75.855469 C 91.144531 75.410156 91.972656 75.0625 92.84375 74.8125 C 93.714844 74.5625 94.601562 74.417969 95.507812 74.378906 C 96.410156 74.339844 97.308594 74.40625 98.199219 74.578125 C 99.085938 74.75 99.945312 75.023438 100.769531 75.398438 C 101.597656 75.785156 102.445312 76.117188 103.3125 76.402344 C 104.183594 76.6875 105.0625 76.917969 105.960938 77.097656 C 106.855469 77.277344 107.757812 77.398438 108.667969 77.472656 C 109.582031 77.542969 110.492188 77.558594 111.40625 77.523438 C 112.316406 77.484375 113.222656 77.390625 114.125 77.246094 C 115.027344 77.101562 115.917969 76.902344 116.796875 76.648438 C 117.675781 76.398438 118.535156 76.09375 119.375 75.742188 C 120.21875 75.386719 121.035156 74.984375 121.828125 74.53125 C 122.621094 74.078125 123.386719 73.582031 124.121094 73.039062 C 124.855469 72.496094 125.554688 71.910156 126.21875 71.285156 C 126.886719 70.65625 127.511719 69.992188 128.097656 69.292969 C 128.679688 68.589844 129.222656 67.859375 129.722656 67.09375 C 130.21875 66.324219 130.671875 65.535156 131.074219 64.714844 C 131.476562 63.894531 131.832031 63.054688 132.132812 62.191406 C 132.4375 61.332031 132.6875 60.453125 132.886719 59.5625 C 133.085938 58.671875 133.230469 57.769531 133.324219 56.863281 L 117.640625 65.585938 C 117.289062 65.78125 116.914062 65.878906 116.511719 65.875 C 116.109375 65.871094 115.734375 65.765625 115.386719 65.5625 L 104.484375 59.234375 C 104.125 59.023438 103.84375 58.738281 103.640625 58.371094 C 103.4375 58.007812 103.34375 57.617188 103.351562 57.203125 L 103.691406 44.589844 C 103.703125 44.183594 103.8125 43.8125 104.023438 43.46875 C 104.230469 43.125 104.511719 42.855469 104.863281 42.65625 L 120.542969 33.914062 C 119.722656 33.511719 118.878906 33.164062 118.015625 32.863281 C 117.15625 32.5625 116.277344 32.3125 115.382812 32.117188 C 114.492188 31.921875 113.589844 31.78125 112.679688 31.691406 C 111.769531 31.605469 110.859375 31.570312 109.945312 31.589844 C 109.03125 31.613281 108.121094 31.6875 107.21875 31.816406 C 106.3125 31.945312 105.417969 32.128906 104.535156 32.363281 C 103.652344 32.597656 102.785156 32.886719 101.9375 33.226562 C 101.089844 33.5625 100.265625 33.953125 99.460938 34.390625 C 98.660156 34.828125 97.886719 35.3125 97.140625 35.839844 C 96.394531 36.371094 95.683594 36.941406 95.007812 37.558594 C 94.332031 38.171875 93.695312 38.824219 93.097656 39.515625 C 92.496094 40.203125 91.941406 40.929688 91.429688 41.6875 C 90.917969 42.441406 90.453125 43.226562 90.035156 44.039062 C 89.613281 44.851562 89.246094 45.6875 88.925781 46.542969 C 88.605469 47.398438 88.339844 48.269531 88.125 49.160156 C 87.910156 50.046875 87.75 50.945312 87.640625 51.851562 C 87.527344 52.75 87.308594 53.625 86.988281 54.472656 C 86.667969 55.320312 86.25 56.117188 85.742188 56.867188 C 85.230469 57.613281 84.640625 58.292969 83.972656 58.902344 C 83.300781 59.511719 82.570312 60.035156 81.773438 60.46875 L 46.613281 80.050781 C 45.828125 80.496094 44.996094 80.847656 44.128906 81.097656 C 43.257812 81.347656 42.371094 81.492188 41.464844 81.53125 C 40.558594 81.570312 39.664062 81.503906 38.773438 81.332031 C 37.886719 81.160156 37.027344 80.886719 36.203125 80.511719 C 35.375 80.125 34.527344 79.792969 33.660156 79.507812 C 32.792969 79.222656 31.910156 78.992188 31.011719 78.8125 C 30.117188 78.632812 29.214844 78.507812 28.304688 78.4375 C 27.394531 78.367188 26.480469 78.351562 25.566406 78.386719 C 24.65625 78.425781 23.75 78.515625 22.847656 78.664062 C 21.945312 78.808594 21.054688 79.007812 20.175781 79.257812 C 19.296875 79.511719 18.4375 79.8125 17.597656 80.167969 C 16.753906 80.523438 15.9375 80.925781 15.140625 81.378906 C 14.347656 81.828125 13.585938 82.328125 12.851562 82.871094 C 12.117188 83.414062 11.414062 84 10.75 84.625 C 10.085938 85.25 9.460938 85.914062 8.875 86.617188 C 8.289062 87.316406 7.746094 88.050781 7.25 88.816406 C 6.75 89.582031 6.300781 90.375 5.898438 91.195312 C 5.492188 92.015625 5.140625 92.855469 4.835938 93.714844 C 4.53125 94.578125 4.28125 95.453125 4.082031 96.347656 C 3.882812 97.238281 3.738281 98.136719 3.648438 99.046875 L 19.328125 90.328125 C 19.679688 90.128906 20.058594 90.035156 20.460938 90.039062 C 20.867188 90.042969 21.242188 90.144531 21.589844 90.347656 L 32.492188 96.679688 C 32.851562 96.890625 33.132812 97.175781 33.335938 97.542969 C 33.535156 97.90625 33.632812 98.296875 33.621094 98.714844 L 33.292969 111.3125 C 33.28125 111.714844 33.167969 112.089844 32.960938 112.433594 C 32.75 112.777344 32.46875 113.050781 32.117188 113.246094 L 16.4375 121.984375 C 17.257812 122.386719 18.101562 122.738281 18.960938 123.039062 C 19.824219 123.339844 20.703125 123.589844 21.59375 123.785156 C 22.488281 123.980469 23.390625 124.125 24.296875 124.210938 C 25.207031 124.300781 26.121094 124.335938 27.035156 124.316406 C 27.945312 124.292969 28.855469 124.21875 29.761719 124.089844 C 30.664062 123.960938 31.558594 123.78125 32.441406 123.546875 C 33.324219 123.308594 34.191406 123.023438 35.039062 122.683594 C 35.886719 122.34375 36.714844 121.957031 37.515625 121.519531 C 38.320312 121.082031 39.09375 120.597656 39.835938 120.070312 C 40.582031 119.539062 41.292969 118.964844 41.96875 118.351562 C 42.644531 117.738281 43.28125 117.085938 43.878906 116.394531 C 44.476562 115.703125 45.03125 114.980469 45.546875 114.222656 C 46.058594 113.464844 46.523438 112.679688 46.941406 111.867188 C 47.359375 111.054688 47.726562 110.222656 48.046875 109.363281 C 48.363281 108.507812 48.628906 107.636719 48.84375 106.746094 C 49.058594 105.859375 49.21875 104.960938 49.328125 104.054688 Z M 47.308594 92.671875 C 47.011719 92.839844 46.695312 92.945312 46.359375 92.988281 C 46.019531 93.03125 45.6875 93.003906 45.359375 92.914062 C 45.03125 92.824219 44.734375 92.671875 44.464844 92.460938 C 44.199219 92.25 43.980469 91.996094 43.816406 91.699219 C 43.648438 91.402344 43.546875 91.082031 43.507812 90.746094 C 43.46875 90.40625 43.5 90.074219 43.59375 89.746094 C 43.6875 89.417969 43.84375 89.121094 44.054688 88.859375 C 44.269531 88.59375 44.523438 88.378906 44.824219 88.214844 L 89.652344 63.230469 C 89.949219 63.0625 90.265625 62.957031 90.601562 62.914062 C 90.941406 62.871094 91.273438 62.898438 91.601562 62.988281 C 91.929688 63.078125 92.226562 63.230469 92.496094 63.441406 C 92.761719 63.652344 92.980469 63.90625 93.144531 64.203125 C 93.3125 64.5 93.414062 64.820312 93.453125 65.15625 C 93.492188 65.496094 93.464844 65.828125 93.367188 66.15625 C 93.273438 66.484375 93.121094 66.78125 92.90625 67.042969 C 92.691406 67.308594 92.4375 67.523438 92.136719 67.6875 Z M 47.308594 92.671875 " fill-opacity="1" fill-rule="nonzero"/></g></g></g><g clip-path="url(#5b33eb3e2f)"><g clip-path="url(#d5fd501a62)"><g clip-path="url(#ef79240ab6)"><path fill="#ffffff" d="M 47.523438 103.84375 C 47.554688 105.566406 47.394531 107.269531 47.046875 108.953125 C 47 109.167969 46.960938 109.378906 46.910156 109.589844 L 46.726562 110.214844 C 46.605469 110.636719 46.464844 111.046875 46.300781 111.453125 C 45.972656 112.273438 45.574219 113.054688 45.097656 113.796875 C 44.84375 114.160156 44.585938 114.523438 44.292969 114.851562 L 43.855469 115.34375 C 43.710938 115.511719 43.558594 115.667969 43.394531 115.8125 C 43.082031 116.117188 42.753906 116.40625 42.410156 116.675781 L 41.898438 117.082031 C 41.726562 117.210938 41.542969 117.328125 41.367188 117.453125 C 39.9375 118.410156 38.421875 119.199219 36.816406 119.820312 C 38.183594 118.792969 39.5625 117.820312 40.839844 116.753906 C 41.164062 116.492188 41.46875 116.210938 41.773438 115.929688 C 42.082031 115.65625 42.375 115.371094 42.648438 115.066406 C 42.949219 114.78125 43.1875 114.457031 43.457031 114.152344 C 43.726562 113.847656 43.925781 113.488281 44.179688 113.171875 C 45.070312 111.785156 45.75 110.300781 46.222656 108.722656 C 46.710938 107.140625 47.089844 105.496094 47.523438 103.84375 Z M 47.523438 103.84375 " fill-opacity="1" fill-rule="nonzero"/></g></g></g><g clip-path="url(#bffdad3590)"><g clip-path="url(#1d00227046)"><g clip-path="url(#4205decd1c)"><path fill="#ffffff" d="M 101.527344 73.742188 C 99.636719 72.972656 97.675781 72.679688 95.644531 72.855469 C 94.65625 72.9375 93.703125 73.15625 92.78125 73.511719 C 91.863281 73.867188 91.023438 74.347656 90.257812 74.957031 L 90.246094 74.972656 L 90.226562 75.003906 C 88.777344 75.851562 87.324219 76.691406 85.867188 77.523438 C 84.414062 78.355469 82.960938 79.1875 81.492188 80.003906 C 78.578125 81.65625 75.632812 83.269531 72.707031 84.894531 L 68.25 87.285156 L 63.804688 89.644531 C 60.835938 91.207031 57.859375 92.75 54.84375 94.226562 C 57.6875 92.441406 60.566406 90.722656 63.453125 89.011719 L 67.800781 86.476562 L 72.164062 83.976562 C 75.097656 82.335938 78.007812 80.679688 80.957031 79.074219 C 82.421875 78.261719 83.890625 77.457031 85.367188 76.664062 C 86.84375 75.867188 88.324219 75.074219 89.800781 74.28125 L 89.75 74.3125 C 90.605469 73.683594 91.535156 73.203125 92.546875 72.875 C 93.535156 72.554688 94.550781 72.375 95.59375 72.34375 C 97.695312 72.289062 99.671875 72.753906 101.527344 73.742188 Z M 101.527344 73.742188 " fill-opacity="1" fill-rule="nonzero"/></g></g></g><g clip-path="url(#2acb72e587)"><g clip-path="url(#ebfd98ebd9)"><g clip-path="url(#7b96a83279)"><path fill="#ffffff" d="M 16.214844 82.871094 C 18.613281 81.429688 21.199219 80.507812 23.96875 80.113281 C 26.761719 79.71875 29.523438 79.878906 32.253906 80.59375 C 32.929688 80.769531 33.597656 80.980469 34.257812 81.222656 C 34.914062 81.464844 35.570312 81.765625 36.167969 82 C 37.40625 82.480469 38.6875 82.769531 40.015625 82.867188 C 42.71875 83.015625 45.324219 82.570312 47.828125 81.53125 L 47.765625 81.566406 C 50.699219 79.925781 53.628906 78.296875 56.554688 76.671875 C 59.480469 75.042969 62.433594 73.445312 65.378906 71.839844 C 68.324219 70.230469 71.28125 68.652344 74.25 67.085938 L 78.707031 64.75 C 80.191406 63.96875 81.679688 63.199219 83.175781 62.4375 C 81.746094 63.3125 80.300781 64.175781 78.859375 65.027344 L 74.53125 67.589844 C 71.636719 69.285156 68.734375 70.964844 65.820312 72.628906 C 62.90625 74.289062 59.996094 75.957031 57.0625 77.605469 C 54.128906 79.257812 51.214844 80.890625 48.269531 82.503906 L 48.253906 82.53125 L 48.234375 82.554688 C 46.921875 83.078125 45.566406 83.460938 44.171875 83.707031 C 42.769531 83.941406 41.359375 84 39.941406 83.878906 C 38.515625 83.753906 37.140625 83.414062 35.820312 82.863281 C 35.152344 82.578125 34.578125 82.285156 33.945312 82.039062 C 33.320312 81.789062 32.683594 81.570312 32.035156 81.382812 C 29.394531 80.621094 26.707031 80.371094 23.972656 80.632812 C 21.238281 80.894531 18.648438 81.652344 16.199219 82.902344 Z M 16.214844 82.871094 " fill-opacity="1" fill-rule="nonzero"/></g></g></g><g fill="#204188" fill-opacity="1"><g transform="translate(136.934409, 47.681414)"><g><path d="M 0.234375 -19.390625 L 0.234375 -24.25 L 17.28125 -24.25 L 17.28125 -19.390625 L 11.515625 -19.390625 L 11.515625 0 L 6 0 L 6 -19.390625 Z M 0.234375 -19.390625 "/></g></g></g><g fill="#204188" fill-opacity="1"><g transform="translate(157.32639, 47.681414)"><g><path d="M 7.28125 -9.734375 L 7.28125 0 L 1.765625 0 L 1.765625 -24.25 L 7.28125 -24.25 L 7.28125 -14.578125 L 15.109375 -14.578125 L 15.109375 -24.25 L 20.625 -24.25 L 20.625 0 L 15.109375 0 L 15.109375 -9.734375 Z M 7.28125 -9.734375 "/></g></g></g><g fill="#204188" fill-opacity="1"><g transform="translate(182.595807, 47.681414)"><g><path d="M 15.640625 -24.25 L 15.640625 -19.390625 L 7.28125 -19.390625 L 7.28125 -14.578125 L 15.28125 -14.578125 L 15.28125 -9.734375 L 7.28125 -9.734375 L 7.28125 -4.84375 L 15.640625 -4.84375 L 15.640625 0 L 1.765625 0 L 1.765625 -24.25 Z M 15.640625 -24.25 "/></g></g></g><g fill="#204188" fill-opacity="1"><g transform="translate(202.524983, 47.681414)"><g/></g></g><g fill="#204188" fill-opacity="1"><g transform="translate(136.934409, 88.384033)"><g><path d="M 1.765625 -24.25 L 10.609375 -24.25 C 13.078125 -24.25 15.070312 -23.609375 16.59375 -22.328125 C 18.125 -21.054688 18.890625 -19.207031 18.890625 -16.78125 C 18.890625 -14.351562 18.113281 -12.445312 16.5625 -11.0625 C 15.019531 -9.6875 13.035156 -9 10.609375 -9 L 7.28125 -9 L 7.28125 0 L 1.765625 0 Z M 7.28125 -13.40625 L 8.84375 -13.40625 C 10.082031 -13.40625 11.097656 -13.65625 11.890625 -14.15625 C 12.679688 -14.65625 13.078125 -15.472656 13.078125 -16.609375 C 13.078125 -17.765625 12.679688 -18.59375 11.890625 -19.09375 C 11.097656 -19.59375 10.082031 -19.84375 8.84375 -19.84375 L 7.28125 -19.84375 Z M 7.28125 -13.40625 "/></g></g></g><g fill="#204188" fill-opacity="1"><g transform="translate(159.383134, 88.384033)"><g><path d="M 7.28125 -9.734375 L 7.28125 0 L 1.765625 0 L 1.765625 -24.25 L 7.28125 -24.25 L 7.28125 -14.578125 L 15.109375 -14.578125 L 15.109375 -24.25 L 20.625 -24.25 L 20.625 0 L 15.109375 0 L 15.109375 -9.734375 Z M 7.28125 -9.734375 "/></g></g></g><g fill="#204188" fill-opacity="1"><g transform="translate(184.652551, 88.384033)"><g><path d="M 0.671875 -12.140625 C 0.671875 -15.648438 1.863281 -18.617188 4.25 -21.046875 C 6.644531 -23.472656 9.53125 -24.6875 12.90625 -24.6875 C 16.289062 -24.6875 19.164062 -23.472656 21.53125 -21.046875 C 23.90625 -18.628906 25.09375 -15.660156 25.09375 -12.140625 C 25.09375 -8.585938 23.925781 -5.601562 21.59375 -3.1875 C 19.269531 -0.769531 16.375 0.4375 12.90625 0.4375 C 9.351562 0.4375 6.425781 -0.757812 4.125 -3.15625 C 1.820312 -5.5625 0.671875 -8.554688 0.671875 -12.140625 Z M 6.640625 -12.140625 C 6.640625 -10.867188 6.832031 -9.707031 7.21875 -8.65625 C 7.613281 -7.601562 8.300781 -6.710938 9.28125 -5.984375 C 10.257812 -5.265625 11.46875 -4.90625 12.90625 -4.90625 C 14.957031 -4.90625 16.507812 -5.609375 17.5625 -7.015625 C 18.613281 -8.429688 19.140625 -10.140625 19.140625 -12.140625 C 19.140625 -14.117188 18.601562 -15.816406 17.53125 -17.234375 C 16.46875 -18.660156 14.925781 -19.375 12.90625 -19.375 C 10.90625 -19.375 9.359375 -18.660156 8.265625 -17.234375 C 7.179688 -15.816406 6.640625 -14.117188 6.640625 -12.140625 Z M 6.640625 -12.140625 "/></g></g></g><g fill="#204188" fill-opacity="1"><g transform="translate(213.300904, 88.384033)"><g><path d="M 7.28125 -15.046875 L 7.28125 0 L 1.765625 0 L 1.765625 -24.25 L 7.28125 -24.25 L 16.921875 -9.203125 L 16.984375 -9.203125 L 16.984375 -24.25 L 22.515625 -24.25 L 22.515625 0 L 16.984375 0 L 7.34375 -15.046875 Z M 7.28125 -15.046875 "/></g></g></g><g fill="#204188" fill-opacity="1"><g transform="translate(240.450778, 88.384033)"><g><path d="M 15.640625 -24.25 L 15.640625 -19.390625 L 7.28125 -19.390625 L 7.28125 -14.578125 L 15.28125 -14.578125 L 15.28125 -9.734375 L 7.28125 -9.734375 L 7.28125 -4.84375 L 15.640625 -4.84375 L 15.640625 0 L 1.765625 0 L 1.765625 -24.25 Z M 15.640625 -24.25 "/></g></g></g><g fill="#204188" fill-opacity="1"><g transform="translate(260.372643, 88.384033)"><g><path d="M 2.640625 -23.78125 C 3.234375 -24.382812 3.945312 -24.6875 4.78125 -24.6875 C 5.625 -24.6875 6.347656 -24.378906 6.953125 -23.765625 C 7.566406 -23.160156 7.875 -22.441406 7.875 -21.609375 C 7.875 -19.015625 6.382812 -16.472656 3.40625 -13.984375 L 2.03125 -15.078125 C 2.144531 -15.191406 2.296875 -15.351562 2.484375 -15.5625 C 2.671875 -15.769531 2.945312 -16.203125 3.3125 -16.859375 C 3.6875 -17.515625 3.9375 -18.175781 4.0625 -18.84375 C 3.394531 -19 2.84375 -19.332031 2.40625 -19.84375 C 1.976562 -20.351562 1.765625 -20.941406 1.765625 -21.609375 C 1.765625 -22.460938 2.054688 -23.1875 2.640625 -23.78125 Z M 2.640625 -23.78125 "/></g></g></g><g fill="#204188" fill-opacity="1"><g transform="translate(271.803072, 88.384033)"><g><path d="M 10.703125 -24.6875 C 12.015625 -24.6875 13.296875 -24.492188 14.546875 -24.109375 C 15.796875 -23.734375 16.726562 -23.359375 17.34375 -22.984375 L 18.21875 -22.390625 L 15.984375 -17.984375 C 15.804688 -18.097656 15.5625 -18.25 15.25 -18.4375 C 14.9375 -18.625 14.347656 -18.875 13.484375 -19.1875 C 12.628906 -19.5 11.828125 -19.65625 11.078125 -19.65625 C 10.160156 -19.65625 9.453125 -19.457031 8.953125 -19.0625 C 8.453125 -18.675781 8.203125 -18.148438 8.203125 -17.484375 C 8.203125 -17.148438 8.316406 -16.84375 8.546875 -16.5625 C 8.785156 -16.28125 9.1875 -15.976562 9.75 -15.65625 C 10.320312 -15.332031 10.820312 -15.070312 11.25 -14.875 C 11.6875 -14.675781 12.351562 -14.378906 13.25 -13.984375 C 14.820312 -13.316406 16.160156 -12.410156 17.265625 -11.265625 C 18.367188 -10.117188 18.921875 -8.820312 18.921875 -7.375 C 18.921875 -5.988281 18.671875 -4.773438 18.171875 -3.734375 C 17.671875 -2.691406 16.984375 -1.875 16.109375 -1.28125 C 15.242188 -0.695312 14.28125 -0.265625 13.21875 0.015625 C 12.164062 0.296875 11.019531 0.4375 9.78125 0.4375 C 8.726562 0.4375 7.691406 0.328125 6.671875 0.109375 C 5.648438 -0.0976562 4.796875 -0.363281 4.109375 -0.6875 C 3.429688 -1.007812 2.816406 -1.328125 2.265625 -1.640625 C 1.710938 -1.953125 1.3125 -2.21875 1.0625 -2.4375 L 0.671875 -2.765625 L 3.4375 -7.40625 C 3.675781 -7.207031 4 -6.957031 4.40625 -6.65625 C 4.820312 -6.351562 5.550781 -5.945312 6.59375 -5.4375 C 7.644531 -4.925781 8.570312 -4.671875 9.375 -4.671875 C 11.707031 -4.671875 12.875 -5.460938 12.875 -7.046875 C 12.875 -7.378906 12.789062 -7.6875 12.625 -7.96875 C 12.457031 -8.257812 12.160156 -8.546875 11.734375 -8.828125 C 11.316406 -9.117188 10.945312 -9.34375 10.625 -9.5 C 10.300781 -9.664062 9.769531 -9.921875 9.03125 -10.265625 C 8.300781 -10.609375 7.757812 -10.867188 7.40625 -11.046875 C 5.9375 -11.773438 4.800781 -12.679688 4 -13.765625 C 3.195312 -14.859375 2.796875 -16.03125 2.796875 -17.28125 C 2.796875 -19.457031 3.597656 -21.234375 5.203125 -22.609375 C 6.804688 -23.992188 8.640625 -24.6875 10.703125 -24.6875 Z M 10.703125 -24.6875 "/></g></g></g><g fill="#204188" fill-opacity="1"><g transform="translate(136.934409, 129.086651)"><g><path d="M 23.6875 -13.578125 L 23.6875 -8.3125 C 23.0625 -5.4375 21.691406 -3.257812 19.578125 -1.78125 C 17.460938 -0.300781 15.097656 0.4375 12.484375 0.4375 C 9.210938 0.4375 6.425781 -0.785156 4.125 -3.234375 C 1.820312 -5.679688 0.671875 -8.640625 0.671875 -12.109375 C 0.671875 -15.640625 1.796875 -18.617188 4.046875 -21.046875 C 6.304688 -23.472656 9.117188 -24.6875 12.484375 -24.6875 C 16.429688 -24.6875 19.550781 -23.304688 21.84375 -20.546875 L 18.21875 -16.578125 C 16.925781 -18.648438 15.125 -19.6875 12.8125 -19.6875 C 11.101562 -19.6875 9.644531 -18.945312 8.4375 -17.46875 C 7.238281 -15.988281 6.640625 -14.203125 6.640625 -12.109375 C 6.640625 -10.046875 7.238281 -8.285156 8.4375 -6.828125 C 9.644531 -5.367188 11.101562 -4.640625 12.8125 -4.640625 C 14.226562 -4.640625 15.457031 -5.066406 16.5 -5.921875 C 17.550781 -6.773438 18.078125 -7.90625 18.078125 -9.3125 L 12.484375 -9.3125 L 12.484375 -13.578125 Z M 23.6875 -13.578125 "/></g></g></g><g fill="#204188" fill-opacity="1"><g transform="translate(164.172419, 129.086651)"><g><path d="M 14.078125 -24.25 L 23.859375 0 L 17.921875 0 L 16.140625 -4.84375 L 6.90625 -4.84375 L 5.109375 0 L -0.828125 0 L 8.96875 -24.25 Z M 14.25 -9.703125 L 11.546875 -16.75 L 11.484375 -16.75 L 8.78125 -9.703125 Z M 14.25 -9.703125 "/></g></g></g><g fill="#204188" fill-opacity="1"><g transform="translate(190.088233, 129.086651)"><g><path d="M 1.765625 -24.25 L 10.4375 -24.25 C 12.769531 -24.25 14.671875 -23.625 16.140625 -22.375 C 17.609375 -21.132812 18.34375 -19.359375 18.34375 -17.046875 C 18.34375 -15.265625 17.894531 -13.769531 17 -12.5625 C 16.113281 -11.351562 14.90625 -10.503906 13.375 -10.015625 L 21.71875 0 L 14.6875 0 L 7.28125 -9.578125 L 7.28125 0 L 1.765625 0 Z M 7.28125 -13.484375 L 7.9375 -13.484375 C 8.445312 -13.484375 8.875 -13.492188 9.21875 -13.515625 C 9.570312 -13.535156 9.972656 -13.601562 10.421875 -13.71875 C 10.878906 -13.84375 11.242188 -14.007812 11.515625 -14.21875 C 11.796875 -14.4375 12.03125 -14.75 12.21875 -15.15625 C 12.414062 -15.570312 12.515625 -16.070312 12.515625 -16.65625 C 12.515625 -17.25 12.414062 -17.75 12.21875 -18.15625 C 12.03125 -18.570312 11.796875 -18.882812 11.515625 -19.09375 C 11.242188 -19.3125 10.878906 -19.476562 10.421875 -19.59375 C 9.972656 -19.71875 9.570312 -19.789062 9.21875 -19.8125 C 8.875 -19.832031 8.445312 -19.84375 7.9375 -19.84375 L 7.28125 -19.84375 Z M 7.28125 -13.484375 "/></g></g></g><g fill="#204188" fill-opacity="1"><g transform="translate(214.00607, 129.086651)"><g><path d="M 14.078125 -24.25 L 23.859375 0 L 17.921875 0 L 16.140625 -4.84375 L 6.90625 -4.84375 L 5.109375 0 L -0.828125 0 L 8.96875 -24.25 Z M 14.25 -9.703125 L 11.546875 -16.75 L 11.484375 -16.75 L 8.78125 -9.703125 Z M 14.25 -9.703125 "/></g></g></g><g fill="#204188" fill-opacity="1"><g transform="translate(239.921887, 129.086651)"><g><path d="M 23.6875 -13.578125 L 23.6875 -8.3125 C 23.0625 -5.4375 21.691406 -3.257812 19.578125 -1.78125 C 17.460938 -0.300781 15.097656 0.4375 12.484375 0.4375 C 9.210938 0.4375 6.425781 -0.785156 4.125 -3.234375 C 1.820312 -5.679688 0.671875 -8.640625 0.671875 -12.109375 C 0.671875 -15.640625 1.796875 -18.617188 4.046875 -21.046875 C 6.304688 -23.472656 9.117188 -24.6875 12.484375 -24.6875 C 16.429688 -24.6875 19.550781 -23.304688 21.84375 -20.546875 L 18.21875 -16.578125 C 16.925781 -18.648438 15.125 -19.6875 12.8125 -19.6875 C 11.101562 -19.6875 9.644531 -18.945312 8.4375 -17.46875 C 7.238281 -15.988281 6.640625 -14.203125 6.640625 -12.109375 C 6.640625 -10.046875 7.238281 -8.285156 8.4375 -6.828125 C 9.644531 -5.367188 11.101562 -4.640625 12.8125 -4.640625 C 14.226562 -4.640625 15.457031 -5.066406 16.5 -5.921875 C 17.550781 -6.773438 18.078125 -7.90625 18.078125 -9.3125 L 12.484375 -9.3125 L 12.484375 -13.578125 Z M 23.6875 -13.578125 "/></g></g></g><g fill="#204188" fill-opacity="1"><g transform="translate(267.159891, 129.086651)"><g><path d="M 15.640625 -24.25 L 15.640625 -19.390625 L 7.28125 -19.390625 L 7.28125 -14.578125 L 15.28125 -14.578125 L 15.28125 -9.734375 L 7.28125 -9.734375 L 7.28125 -4.84375 L 15.640625 -4.84375 L 15.640625 0 L 1.765625 0 L 1.765625 -24.25 Z M 15.640625 -24.25 "/></g></g></g></svg>